<svg width="733" height="102" viewBox="0 0 733 102" fill="none" xmlns="http://www.w3.org/2000/svg">
<path d="M31.2297 3.4V37H23.5017V9.736H8.33369V37H0.605688V3.4H31.2297ZM54.1988 10.792C56.5988 10.792 58.7748 11.352 60.7268 12.472C62.7108 13.56 64.2628 15.112 65.3828 17.128C66.5028 19.112 67.0628 21.432 67.0628 24.088C67.0628 26.744 66.5028 29.08 65.3828 31.096C64.2628 33.08 62.7108 34.632 60.7268 35.752C58.7748 36.84 56.5988 37.384 54.1988 37.384C50.9028 37.384 48.3108 36.344 46.4228 34.264V46.312H38.9348V11.176H46.0868V14.152C47.9428 11.912 50.6468 10.792 54.1988 10.792ZM52.9028 31.24C54.8228 31.24 56.3908 30.6 57.6068 29.32C58.8548 28.008 59.4788 26.264 59.4788 24.088C59.4788 21.912 58.8548 20.184 57.6068 18.904C56.3908 17.592 54.8228 16.936 52.9028 16.936C50.9828 16.936 49.3988 17.592 48.1508 18.904C46.9348 20.184 46.3268 21.912 46.3268 24.088C46.3268 26.264 46.9348 28.008 48.1508 29.32C49.3988 30.6 50.9828 31.24 52.9028 31.24ZM84.4069 37.384C81.6869 37.384 79.2389 36.824 77.0629 35.704C74.9189 34.552 73.2389 32.968 72.0229 30.952C70.8069 28.936 70.1989 26.648 70.1989 24.088C70.1989 21.528 70.8069 19.24 72.0229 17.224C73.2389 15.208 74.9189 13.64 77.0629 12.52C79.2389 11.368 81.6869 10.792 84.4069 10.792C87.1269 10.792 89.5589 11.368 91.7029 12.52C93.8469 13.64 95.5269 15.208 96.7429 17.224C97.9589 19.24 98.5669 21.528 98.5669 24.088C98.5669 26.648 97.9589 28.936 96.7429 30.952C95.5269 32.968 93.8469 34.552 91.7029 35.704C89.5589 36.824 87.1269 37.384 84.4069 37.384ZM84.4069 31.24C86.3269 31.24 87.8949 30.6 89.1109 29.32C90.3589 28.008 90.9829 26.264 90.9829 24.088C90.9829 21.912 90.3589 20.184 89.1109 18.904C87.8949 17.592 86.3269 16.936 84.4069 16.936C82.4869 16.936 80.9029 17.592 79.6549 18.904C78.4069 20.184 77.7829 21.912 77.7829 24.088C77.7829 26.264 78.4069 28.008 79.6549 29.32C80.9029 30.6 82.4869 31.24 84.4069 31.24ZM139.381 23.992C139.381 27.992 138.037 31.16 135.349 33.496C132.693 35.8 128.885 37.128 123.925 37.48V46.312H117.061V37.48C112.101 37.128 108.277 35.816 105.589 33.544C102.933 31.24 101.605 28.056 101.605 23.992C101.605 19.992 102.917 16.888 105.541 14.68C108.197 12.472 112.037 11.192 117.061 10.84V1.384H123.925V10.84C128.885 11.192 132.693 12.488 135.349 14.728C138.037 16.968 139.381 20.056 139.381 23.992ZM108.853 23.992C108.853 26.296 109.509 28.072 110.821 29.32C112.133 30.568 114.213 31.352 117.061 31.672V16.648C114.213 16.936 112.133 17.688 110.821 18.904C109.509 20.088 108.853 21.784 108.853 23.992ZM123.925 31.672C126.773 31.352 128.853 30.568 130.165 29.32C131.509 28.072 132.181 26.296 132.181 23.992C132.181 21.784 131.509 20.088 130.165 18.904C128.853 17.688 126.773 16.936 123.925 16.648V31.672ZM169.556 24.184C169.556 24.28 169.508 24.952 169.412 26.2H149.876C150.228 27.8 151.06 29.064 152.372 29.992C153.684 30.92 155.316 31.384 157.268 31.384C158.612 31.384 159.796 31.192 160.82 30.808C161.876 30.392 162.852 29.752 163.748 28.888L167.732 33.208C165.3 35.992 161.748 37.384 157.076 37.384C154.164 37.384 151.588 36.824 149.348 35.704C147.108 34.552 145.38 32.968 144.164 30.952C142.948 28.936 142.34 26.648 142.34 24.088C142.34 21.56 142.932 19.288 144.116 17.272C145.332 15.224 146.98 13.64 149.06 12.52C151.172 11.368 153.524 10.792 156.116 10.792C158.644 10.792 160.932 11.336 162.98 12.424C165.028 13.512 166.628 15.08 167.78 17.128C168.964 19.144 169.556 21.496 169.556 24.184ZM156.164 16.456C154.468 16.456 153.044 16.936 151.892 17.896C150.74 18.856 150.036 20.168 149.78 21.832H162.5C162.244 20.2 161.54 18.904 160.388 17.944C159.236 16.952 157.828 16.456 156.164 16.456ZM187.583 37.384C184.831 37.384 182.351 36.824 180.143 35.704C177.967 34.552 176.255 32.968 175.007 30.952C173.791 28.936 173.183 26.648 173.183 24.088C173.183 21.528 173.791 19.24 175.007 17.224C176.255 15.208 177.967 13.64 180.143 12.52C182.351 11.368 184.831 10.792 187.583 10.792C190.303 10.792 192.671 11.368 194.687 12.52C196.735 13.64 198.223 15.256 199.151 17.368L193.343 20.488C191.999 18.12 190.063 16.936 187.535 16.936C185.583 16.936 183.967 17.576 182.687 18.856C181.407 20.136 180.767 21.88 180.767 24.088C180.767 26.296 181.407 28.04 182.687 29.32C183.967 30.6 185.583 31.24 187.535 31.24C190.095 31.24 192.031 30.056 193.343 27.688L199.151 30.856C198.223 32.904 196.735 34.504 194.687 35.656C192.671 36.808 190.303 37.384 187.583 37.384ZM215.661 37.384C212.909 37.384 210.429 36.824 208.221 35.704C206.045 34.552 204.333 32.968 203.085 30.952C201.869 28.936 201.261 26.648 201.261 24.088C201.261 21.528 201.869 19.24 203.085 17.224C204.333 15.208 206.045 13.64 208.221 12.52C210.429 11.368 212.909 10.792 215.661 10.792C218.381 10.792 220.749 11.368 222.765 12.52C224.813 13.64 226.301 15.256 227.229 17.368L221.421 20.488C220.077 18.12 218.141 16.936 215.613 16.936C213.661 16.936 212.045 17.576 210.765 18.856C209.485 20.136 208.845 21.88 208.845 24.088C208.845 26.296 209.485 28.04 210.765 29.32C212.045 30.6 213.661 31.24 215.613 31.24C218.173 31.24 220.109 30.056 221.421 27.688L227.229 30.856C226.301 32.904 224.813 34.504 222.765 35.656C220.749 36.808 218.381 37.384 215.661 37.384ZM231.78 11.176H239.22V26.536L251.796 11.176H258.66V37H251.22V21.64L238.692 37H231.78V11.176ZM277.954 37.384C275.234 37.384 272.786 36.824 270.61 35.704C268.466 34.552 266.786 32.968 265.57 30.952C264.354 28.936 263.746 26.648 263.746 24.088C263.746 21.528 264.354 19.24 265.57 17.224C266.786 15.208 268.466 13.64 270.61 12.52C272.786 11.368 275.234 10.792 277.954 10.792C280.674 10.792 283.106 11.368 285.25 12.52C287.394 13.64 289.074 15.208 290.29 17.224C291.506 19.24 292.114 21.528 292.114 24.088C292.114 26.648 291.506 28.936 290.29 30.952C289.074 32.968 287.394 34.552 285.25 35.704C283.106 36.824 280.674 37.384 277.954 37.384ZM277.954 31.24C279.874 31.24 281.442 30.6 282.658 29.32C283.906 28.008 284.53 26.264 284.53 24.088C284.53 21.912 283.906 20.184 282.658 18.904C281.442 17.592 279.874 16.936 277.954 16.936C276.034 16.936 274.45 17.592 273.202 18.904C271.954 20.184 271.33 21.912 271.33 24.088C271.33 26.264 271.954 28.008 273.202 29.32C274.45 30.6 276.034 31.24 277.954 31.24ZM297.264 11.176H304.704V21.256H315.936V11.176H323.424V37H315.936V27.352H304.704V37H297.264V11.176ZM340.624 10.792C344.624 10.792 347.696 11.752 349.84 13.672C351.984 15.56 353.056 18.424 353.056 22.264V37H346.048V33.784C344.64 36.184 342.016 37.384 338.176 37.384C336.192 37.384 334.464 37.048 332.992 36.376C331.552 35.704 330.448 34.776 329.68 33.592C328.912 32.408 328.528 31.064 328.528 29.56C328.528 27.16 329.424 25.272 331.216 23.896C333.04 22.52 335.84 21.832 339.616 21.832H345.568C345.568 20.2 345.072 18.952 344.08 18.088C343.088 17.192 341.6 16.744 339.616 16.744C338.24 16.744 336.88 16.968 335.536 17.416C334.224 17.832 333.104 18.408 332.176 19.144L329.488 13.912C330.896 12.92 332.576 12.152 334.528 11.608C336.512 11.064 338.544 10.792 340.624 10.792ZM340.048 32.344C341.328 32.344 342.464 32.056 343.456 31.48C344.448 30.872 345.152 29.992 345.568 28.84V26.2H340.432C337.36 26.2 335.824 27.208 335.824 29.224C335.824 30.184 336.192 30.952 336.928 31.528C337.696 32.072 338.736 32.344 340.048 32.344ZM384.329 11.176V37H376.841V17.32H368.681L368.441 21.88C368.313 25.272 367.993 28.088 367.481 30.328C366.969 32.568 366.137 34.328 364.985 35.608C363.833 36.888 362.233 37.528 360.185 37.528C359.097 37.528 357.801 37.336 356.297 36.952L356.681 30.808C357.193 30.872 357.561 30.904 357.785 30.904C358.905 30.904 359.737 30.504 360.281 29.704C360.857 28.872 361.241 27.832 361.433 26.584C361.625 25.304 361.769 23.624 361.865 21.544L362.249 11.176H384.329ZM405.498 19.432C408.858 19.464 411.434 20.232 413.226 21.736C415.018 23.208 415.914 25.304 415.914 28.024C415.914 30.872 414.906 33.096 412.89 34.696C410.906 36.264 408.106 37.048 404.49 37.048L391.53 37V11.176H398.97V19.432H405.498ZM403.818 31.72C405.258 31.752 406.362 31.448 407.13 30.808C407.898 30.168 408.282 29.208 408.282 27.928C408.282 26.68 407.898 25.768 407.13 25.192C406.394 24.616 405.29 24.312 403.818 24.28L398.97 24.232V31.72H403.818ZM420.592 11.176H428.032V21.256H439.264V11.176H446.752V37H439.264V27.352H428.032V37H420.592V11.176ZM467.504 19.432C470.864 19.464 473.408 20.216 475.136 21.688C476.864 23.16 477.728 25.272 477.728 28.024C477.728 30.904 476.752 33.128 474.8 34.696C472.848 36.264 470.08 37.048 466.496 37.048L453.92 37V11.176H461.36V19.432H467.504ZM480.512 11.176H487.952V37H480.512V11.176ZM465.824 31.72C467.264 31.752 468.368 31.448 469.136 30.808C469.904 30.168 470.288 29.208 470.288 27.928C470.288 26.68 469.904 25.768 469.136 25.192C468.4 24.616 467.296 24.312 465.824 24.28L461.36 24.232V31.72H465.824ZM495.17 11.176H502.61V26.536L515.186 11.176H522.05V37H514.61V21.64L502.082 37H495.17V11.176ZM508.13 8.392C502.498 8.392 499.666 5.912 499.634 0.951998H504.53C504.562 2.072 504.866 2.952 505.442 3.592C506.05 4.2 506.93 4.504 508.082 4.504C509.234 4.504 510.114 4.2 510.722 3.592C511.362 2.952 511.682 2.072 511.682 0.951998H516.674C516.642 5.912 513.794 8.392 508.13 8.392ZM100.336 82.56C101.872 83.04 103.056 83.776 103.888 84.768C104.752 85.76 105.184 86.944 105.184 88.32C105.184 89.952 104.624 91.392 103.504 92.64C102.384 93.856 100.848 94.8 98.8964 95.472C96.9444 96.144 94.7364 96.48 92.2724 96.48C90.2564 96.48 88.2724 96.272 86.3204 95.856C84.3684 95.44 82.5604 94.816 80.8964 93.984L82.9124 88.752C85.6324 90.064 88.6404 90.72 91.9364 90.72C93.6964 90.72 95.0724 90.464 96.0644 89.952C97.0884 89.408 97.6004 88.656 97.6004 87.696C97.6004 86.864 97.2484 86.24 96.5444 85.824C95.8404 85.376 94.8164 85.152 93.4724 85.152H88.1924V80.496H92.8004C94.1124 80.496 95.1204 80.288 95.8244 79.872C96.5284 79.456 96.8804 78.848 96.8804 78.048C96.8804 77.216 96.4324 76.576 95.5364 76.128C94.6724 75.68 93.4244 75.456 91.7924 75.456C89.2964 75.456 86.5764 76.048 83.6324 77.232L81.8084 72.048C85.3924 70.48 88.8804 69.696 92.2724 69.696C94.6084 69.696 96.6884 69.984 98.5124 70.56C100.368 71.136 101.824 71.984 102.88 73.104C103.936 74.192 104.464 75.472 104.464 76.944C104.464 78.16 104.096 79.264 103.36 80.256C102.624 81.216 101.616 81.984 100.336 82.56ZM120.663 69.792C124.663 69.792 127.735 70.752 129.879 72.672C132.023 74.56 133.095 77.424 133.095 81.264V96H126.087V92.784C124.679 95.184 122.055 96.384 118.215 96.384C116.231 96.384 114.503 96.048 113.031 95.376C111.591 94.704 110.487 93.776 109.719 92.592C108.951 91.408 108.567 90.064 108.567 88.56C108.567 86.16 109.463 84.272 111.255 82.896C113.079 81.52 115.879 80.832 119.655 80.832H125.607C125.607 79.2 125.111 77.952 124.119 77.088C123.127 76.192 121.639 75.744 119.655 75.744C118.279 75.744 116.919 75.968 115.575 76.416C114.263 76.832 113.143 77.408 112.215 78.144L109.527 72.912C110.935 71.92 112.615 71.152 114.567 70.608C116.551 70.064 118.583 69.792 120.663 69.792ZM120.087 91.344C121.367 91.344 122.503 91.056 123.495 90.48C124.487 89.872 125.191 88.992 125.607 87.84V85.2H120.471C117.399 85.2 115.863 86.208 115.863 88.224C115.863 89.184 116.231 89.952 116.967 90.528C117.735 91.072 118.775 91.344 120.087 91.344ZM163.226 69.792C167.226 69.792 170.298 70.752 172.442 72.672C174.586 74.56 175.658 77.424 175.658 81.264V96H168.65V92.784C167.242 95.184 164.618 96.384 160.778 96.384C158.794 96.384 157.066 96.048 155.594 95.376C154.154 94.704 153.05 93.776 152.282 92.592C151.514 91.408 151.13 90.064 151.13 88.56C151.13 86.16 152.026 84.272 153.818 82.896C155.642 81.52 158.442 80.832 162.218 80.832H168.17C168.17 79.2 167.674 77.952 166.682 77.088C165.69 76.192 164.202 75.744 162.218 75.744C160.842 75.744 159.482 75.968 158.138 76.416C156.826 76.832 155.706 77.408 154.778 78.144L152.09 72.912C153.498 71.92 155.178 71.152 157.13 70.608C159.114 70.064 161.146 69.792 163.226 69.792ZM162.65 91.344C163.93 91.344 165.066 91.056 166.058 90.48C167.05 89.872 167.754 88.992 168.17 87.84V85.2H163.034C159.962 85.2 158.426 86.208 158.426 88.224C158.426 89.184 158.794 89.952 159.53 90.528C160.298 91.072 161.338 91.344 162.65 91.344ZM211.107 89.856V101.568H204.147V96H186.003V101.568H179.043V89.856H180.099C181.699 89.824 182.803 88.88 183.411 87.024C184.019 85.168 184.403 82.528 184.562 79.104L184.898 70.176H207.411V89.856H211.107ZM191.331 79.632C191.235 82.256 191.027 84.4 190.707 86.064C190.419 87.728 189.859 88.992 189.027 89.856H199.923V76.32H191.475L191.331 79.632ZM240.923 83.184C240.923 83.28 240.875 83.952 240.779 85.2H221.243C221.595 86.8 222.427 88.064 223.739 88.992C225.051 89.92 226.683 90.384 228.635 90.384C229.979 90.384 231.163 90.192 232.187 89.808C233.243 89.392 234.219 88.752 235.115 87.888L239.099 92.208C236.667 94.992 233.115 96.384 228.443 96.384C225.531 96.384 222.955 95.824 220.715 94.704C218.475 93.552 216.747 91.968 215.531 89.952C214.315 87.936 213.707 85.648 213.707 83.088C213.707 80.56 214.299 78.288 215.483 76.272C216.699 74.224 218.347 72.64 220.427 71.52C222.539 70.368 224.891 69.792 227.483 69.792C230.011 69.792 232.299 70.336 234.347 71.424C236.395 72.512 237.995 74.08 239.147 76.128C240.331 78.144 240.923 80.496 240.923 83.184ZM227.531 75.456C225.835 75.456 224.411 75.936 223.259 76.896C222.107 77.856 221.403 79.168 221.147 80.832H233.867C233.611 79.2 232.907 77.904 231.755 76.944C230.603 75.952 229.195 75.456 227.531 75.456ZM258.039 86.208H254.151V96H246.663V70.176H254.151V80.208H258.183L265.191 70.176H273.159L264.135 82.56L273.783 96H264.951L258.039 86.208ZM297.187 82.512C300.227 83.536 301.747 85.584 301.747 88.656C301.747 90.992 300.867 92.8 299.107 94.08C297.347 95.36 294.723 96 291.235 96H277.459V70.176H290.659C293.891 70.176 296.419 70.768 298.243 71.952C300.067 73.104 300.979 74.736 300.979 76.848C300.979 78.128 300.643 79.264 299.971 80.256C299.331 81.216 298.403 81.968 297.187 82.512ZM284.323 80.784H289.987C292.611 80.784 293.923 79.856 293.923 78C293.923 76.176 292.611 75.264 289.987 75.264H284.323V80.784ZM290.611 90.912C293.363 90.912 294.739 89.968 294.739 88.08C294.739 87.088 294.419 86.368 293.779 85.92C293.139 85.44 292.131 85.2 290.755 85.2H284.323V90.912H290.611ZM317.351 69.792C321.351 69.792 324.423 70.752 326.567 72.672C328.711 74.56 329.783 77.424 329.783 81.264V96H322.775V92.784C321.367 95.184 318.743 96.384 314.903 96.384C312.919 96.384 311.191 96.048 309.719 95.376C308.279 94.704 307.175 93.776 306.407 92.592C305.639 91.408 305.255 90.064 305.255 88.56C305.255 86.16 306.151 84.272 307.943 82.896C309.767 81.52 312.567 80.832 316.343 80.832H322.295C322.295 79.2 321.799 77.952 320.807 77.088C319.815 76.192 318.327 75.744 316.343 75.744C314.967 75.744 313.607 75.968 312.263 76.416C310.951 76.832 309.831 77.408 308.903 78.144L306.215 72.912C307.623 71.92 309.303 71.152 311.255 70.608C313.239 70.064 315.271 69.792 317.351 69.792ZM316.775 91.344C318.055 91.344 319.191 91.056 320.183 90.48C321.175 89.872 321.879 88.992 322.295 87.84V85.2H317.159C314.087 85.2 312.551 86.208 312.551 88.224C312.551 89.184 312.919 89.952 313.655 90.528C314.423 91.072 315.463 91.344 316.775 91.344ZM357.984 76.32H349.248V96H341.808V76.32H333.072V70.176H357.984V76.32ZM361.975 70.176H369.415V80.256H380.647V70.176H388.135V96H380.647V86.352H369.415V96H361.975V70.176ZM408.887 78.432C412.247 78.464 414.791 79.216 416.519 80.688C418.247 82.16 419.111 84.272 419.111 87.024C419.111 89.904 418.135 92.128 416.183 93.696C414.231 95.264 411.463 96.048 407.879 96.048L395.303 96V70.176H402.743V78.432H408.887ZM421.895 70.176H429.335V96H421.895V70.176ZM407.207 90.72C408.647 90.752 409.751 90.448 410.519 89.808C411.287 89.168 411.671 88.208 411.671 86.928C411.671 85.68 411.287 84.768 410.519 84.192C409.783 83.616 408.679 83.312 407.207 83.28L402.743 83.232V90.72H407.207ZM461.657 83.184C461.657 83.28 461.609 83.952 461.513 85.2H441.977C442.329 86.8 443.161 88.064 444.473 88.992C445.785 89.92 447.417 90.384 449.369 90.384C450.713 90.384 451.897 90.192 452.921 89.808C453.977 89.392 454.953 88.752 455.849 87.888L459.833 92.208C457.401 94.992 453.849 96.384 449.177 96.384C446.265 96.384 443.689 95.824 441.449 94.704C439.209 93.552 437.481 91.968 436.265 89.952C435.049 87.936 434.441 85.648 434.441 83.088C434.441 80.56 435.033 78.288 436.217 76.272C437.433 74.224 439.081 72.64 441.161 71.52C443.273 70.368 445.625 69.792 448.217 69.792C450.745 69.792 453.033 70.336 455.081 71.424C457.129 72.512 458.729 74.08 459.881 76.128C461.065 78.144 461.657 80.496 461.657 83.184ZM448.265 75.456C446.569 75.456 445.145 75.936 443.993 76.896C442.841 77.856 442.137 79.168 441.881 80.832H454.601C454.345 79.2 453.641 77.904 452.489 76.944C451.337 75.952 449.929 75.456 448.265 75.456Z" fill="white"/>
<path d="M558.058 10.792C560.458 10.792 562.634 11.352 564.586 12.472C566.57 13.56 568.122 15.112 569.242 17.128C570.362 19.112 570.922 21.432 570.922 24.088C570.922 26.744 570.362 29.08 569.242 31.096C568.122 33.08 566.57 34.632 564.586 35.752C562.634 36.84 560.458 37.384 558.058 37.384C554.762 37.384 552.17 36.344 550.282 34.264V46.312H542.794V11.176H549.946V14.152C551.802 11.912 554.506 10.792 558.058 10.792ZM556.762 31.24C558.682 31.24 560.25 30.6 561.466 29.32C562.714 28.008 563.338 26.264 563.338 24.088C563.338 21.912 562.714 20.184 561.466 18.904C560.25 17.592 558.682 16.936 556.762 16.936C554.842 16.936 553.258 17.592 552.01 18.904C550.794 20.184 550.186 21.912 550.186 24.088C550.186 26.264 550.794 28.008 552.01 29.32C553.258 30.6 554.842 31.24 556.762 31.24ZM601.274 24.184C601.274 24.28 601.226 24.952 601.13 26.2H581.594C581.946 27.8 582.778 29.064 584.09 29.992C585.402 30.92 587.034 31.384 588.986 31.384C590.33 31.384 591.514 31.192 592.538 30.808C593.594 30.392 594.57 29.752 595.466 28.888L599.45 33.208C597.018 35.992 593.466 37.384 588.794 37.384C585.882 37.384 583.306 36.824 581.066 35.704C578.826 34.552 577.098 32.968 575.882 30.952C574.666 28.936 574.058 26.648 574.058 24.088C574.058 21.56 574.65 19.288 575.834 17.272C577.05 15.224 578.698 13.64 580.778 12.52C582.89 11.368 585.242 10.792 587.834 10.792C590.362 10.792 592.65 11.336 594.698 12.424C596.746 13.512 598.346 15.08 599.498 17.128C600.682 19.144 601.274 21.496 601.274 24.184ZM587.882 16.456C586.186 16.456 584.762 16.936 583.61 17.896C582.458 18.856 581.754 20.168 581.498 21.832H594.218C593.962 20.2 593.258 18.904 592.106 17.944C590.954 16.952 589.546 16.456 587.882 16.456ZM632.214 37V21.544L624.486 34.504H621.318L613.782 21.496V37H607.014V11.176H614.838L623.094 26.104L631.878 11.176H638.886L638.982 37H632.214ZM658.251 37.384C655.531 37.384 653.083 36.824 650.907 35.704C648.763 34.552 647.083 32.968 645.867 30.952C644.651 28.936 644.043 26.648 644.043 24.088C644.043 21.528 644.651 19.24 645.867 17.224C647.083 15.208 648.763 13.64 650.907 12.52C653.083 11.368 655.531 10.792 658.251 10.792C660.971 10.792 663.403 11.368 665.547 12.52C667.691 13.64 669.371 15.208 670.587 17.224C671.803 19.24 672.411 21.528 672.411 24.088C672.411 26.648 671.803 28.936 670.587 30.952C669.371 32.968 667.691 34.552 665.547 35.704C663.403 36.824 660.971 37.384 658.251 37.384ZM658.251 31.24C660.171 31.24 661.739 30.6 662.955 29.32C664.203 28.008 664.827 26.264 664.827 24.088C664.827 21.912 664.203 20.184 662.955 18.904C661.739 17.592 660.171 16.936 658.251 16.936C656.331 16.936 654.747 17.592 653.499 18.904C652.251 20.184 651.627 21.912 651.627 24.088C651.627 26.264 652.251 28.008 653.499 29.32C654.747 30.6 656.331 31.24 658.251 31.24ZM677.561 11.176H685.001V21.256H696.233V11.176H703.721V37H696.233V27.352H685.001V37H677.561V11.176ZM732.585 17.32H723.849V37H716.409V17.32H707.673V11.176H732.585V17.32Z" fill="#89B0F0"/>
<path d="M509.935 89.856V101.568H502.975V96H484.831V101.568H477.871V89.856H478.927C480.527 89.824 481.631 88.88 482.239 87.024C482.847 85.168 483.231 82.528 483.391 79.104L483.727 70.176H506.239V89.856H509.935ZM490.159 79.632C490.063 82.256 489.855 84.4 489.535 86.064C489.247 87.728 488.687 88.992 487.855 89.856H498.751V76.32H490.303L490.159 79.632ZM539.751 83.184C539.751 83.28 539.703 83.952 539.607 85.2H520.071C520.423 86.8 521.255 88.064 522.567 88.992C523.879 89.92 525.511 90.384 527.463 90.384C528.807 90.384 529.991 90.192 531.015 89.808C532.071 89.392 533.047 88.752 533.943 87.888L537.927 92.208C535.495 94.992 531.943 96.384 527.271 96.384C524.359 96.384 521.783 95.824 519.543 94.704C517.303 93.552 515.575 91.968 514.359 89.952C513.143 87.936 512.535 85.648 512.535 83.088C512.535 80.56 513.127 78.288 514.311 76.272C515.527 74.224 517.175 72.64 519.255 71.52C521.367 70.368 523.719 69.792 526.311 69.792C528.839 69.792 531.127 70.336 533.175 71.424C535.223 72.512 536.823 74.08 537.975 76.128C539.159 78.144 539.751 80.496 539.751 83.184ZM526.359 75.456C524.663 75.456 523.239 75.936 522.087 76.896C520.935 77.856 520.231 79.168 519.975 80.832H532.695C532.439 79.2 531.735 77.904 530.583 76.944C529.431 75.952 528.023 75.456 526.359 75.456ZM545.491 70.176H552.931V80.256H564.163V70.176H571.651V96H564.163V86.352H552.931V96H545.491V70.176ZM592.787 78.432C596.147 78.464 598.723 79.232 600.515 80.736C602.307 82.208 603.203 84.304 603.203 87.024C603.203 89.872 602.195 92.096 600.179 93.696C598.195 95.264 595.395 96.048 591.779 96.048L578.819 96V70.176H586.259V78.432H592.787ZM591.107 90.72C592.547 90.752 593.651 90.448 594.419 89.808C595.187 89.168 595.571 88.208 595.571 86.928C595.571 85.68 595.187 84.768 594.419 84.192C593.683 83.616 592.579 83.312 591.107 83.28L586.259 83.232V90.72H591.107ZM628.569 76.32H615.321V96H607.881V70.176H628.569V76.32ZM632.538 70.176H639.978V85.536L652.554 70.176H659.418V96H651.978V80.64L639.45 96H632.538V70.176Z" fill="#FFA665"/>
</svg>
