<svg width="557" height="40" viewBox="0 0 557 40" fill="none" xmlns="http://www.w3.org/2000/svg">
<path d="M7.50016 14.108C6.55216 14.108 5.67616 13.952 4.87216 13.64C4.06816 13.316 3.37216 12.866 2.78416 12.29C2.19616 11.714 1.73416 11.036 1.39816 10.256C1.07416 9.476 0.912164 8.624 0.912164 7.7C0.912164 6.776 1.07416 5.924 1.39816 5.144C1.73416 4.364 2.19616 3.686 2.78416 3.11C3.38416 2.534 4.08616 2.09 4.89016 1.778C5.69416 1.454 6.57016 1.292 7.51816 1.292C8.43016 1.292 9.28816 1.448 10.0922 1.76C10.8962 2.06 11.5742 2.516 12.1262 3.128L11.2802 3.974C10.7642 3.446 10.1942 3.068 9.57016 2.84C8.94616 2.6 8.27416 2.48 7.55416 2.48C6.79816 2.48 6.09616 2.612 5.44816 2.876C4.80016 3.128 4.23616 3.494 3.75616 3.974C3.27616 4.442 2.89816 4.994 2.62216 5.63C2.35816 6.254 2.22616 6.944 2.22616 7.7C2.22616 8.456 2.35816 9.152 2.62216 9.788C2.89816 10.412 3.27616 10.964 3.75616 11.444C4.23616 11.912 4.80016 12.278 5.44816 12.542C6.09616 12.794 6.79816 12.92 7.55416 12.92C8.27416 12.92 8.94616 12.8 9.57016 12.56C10.1942 12.32 10.7642 11.936 11.2802 11.408L12.1262 12.254C11.5742 12.866 10.8962 13.328 10.0922 13.64C9.28816 13.952 8.42416 14.108 7.50016 14.108ZM14.5709 14V4.55H18.7469C19.8149 4.55 20.6549 4.754 21.2669 5.162C21.8909 5.57 22.2029 6.17 22.2029 6.962C22.2029 7.73 21.9089 8.324 21.3209 8.744C20.7329 9.152 19.9589 9.356 18.9989 9.356L19.2509 8.978C20.3789 8.978 21.2069 9.188 21.7349 9.608C22.2629 10.028 22.5269 10.634 22.5269 11.426C22.5269 12.242 22.2269 12.878 21.6269 13.334C21.0389 13.778 20.1209 14 18.8729 14H14.5709ZM15.8129 12.992H18.8189C19.6229 12.992 20.2289 12.866 20.6369 12.614C21.0569 12.35 21.2669 11.93 21.2669 11.354C21.2669 10.778 21.0809 10.358 20.7089 10.094C20.3369 9.83 19.7489 9.698 18.9449 9.698H15.8129V12.992ZM15.8129 8.744H18.6569C19.3889 8.744 19.9469 8.606 20.3309 8.33C20.7269 8.054 20.9249 7.652 20.9249 7.124C20.9249 6.596 20.7269 6.2 20.3309 5.936C19.9469 5.672 19.3889 5.54 18.6569 5.54H15.8129V8.744ZM31.6241 14V10.598L31.8581 10.868H28.6541C27.4421 10.868 26.4941 10.604 25.8101 10.076C25.1261 9.548 24.7841 8.78 24.7841 7.772C24.7841 6.692 25.1501 5.888 25.8821 5.36C26.6141 4.82 27.5921 4.55 28.8161 4.55H32.7941V14H31.6241ZM24.7121 14L27.3041 10.364H28.6361L26.0981 14H24.7121ZM31.6241 10.22V5.288L31.8581 5.666H28.8521C27.9761 5.666 27.2921 5.834 26.8001 6.17C26.3201 6.506 26.0801 7.052 26.0801 7.808C26.0801 9.212 26.9741 9.914 28.7621 9.914H31.8581L31.6241 10.22ZM47.6521 14L44.4121 9.32L45.4741 8.69L49.1821 14H47.6521ZM42.2881 9.788V8.69H45.2761V9.788H42.2881ZM45.6001 9.41L44.3761 9.23L47.5261 4.55H48.9121L45.6001 9.41ZM36.4561 14H34.9261L38.6341 8.69L39.6781 9.32L36.4561 14ZM42.6841 14H41.4061V4.55H42.6841V14ZM41.8021 9.788H38.8321V8.69H41.8021V9.788ZM38.5261 9.41L35.1961 4.55H36.5821L39.7141 9.23L38.5261 9.41ZM55.0252 14.09C54.0412 14.09 53.1772 13.886 52.4332 13.478C51.6892 13.058 51.1072 12.488 50.6872 11.768C50.2672 11.036 50.0572 10.202 50.0572 9.266C50.0572 8.33 50.2552 7.502 50.6512 6.782C51.0592 6.062 51.6112 5.498 52.3072 5.09C53.0152 4.67 53.8072 4.46 54.6832 4.46C55.5712 4.46 56.3572 4.664 57.0412 5.072C57.7372 5.468 58.2832 6.032 58.6792 6.764C59.0752 7.484 59.2732 8.318 59.2732 9.266C59.2732 9.326 59.2672 9.392 59.2552 9.464C59.2552 9.524 59.2552 9.59 59.2552 9.662H51.0292V8.708H58.5712L58.0672 9.086C58.0672 8.402 57.9172 7.796 57.6172 7.268C57.3292 6.728 56.9332 6.308 56.4292 6.008C55.9252 5.708 55.3432 5.558 54.6832 5.558C54.0352 5.558 53.4532 5.708 52.9372 6.008C52.4212 6.308 52.0192 6.728 51.7312 7.268C51.4432 7.808 51.2992 8.426 51.2992 9.122V9.32C51.2992 10.04 51.4552 10.676 51.7672 11.228C52.0912 11.768 52.5352 12.194 53.0992 12.506C53.6752 12.806 54.3292 12.956 55.0612 12.956C55.6372 12.956 56.1712 12.854 56.6632 12.65C57.1672 12.446 57.5992 12.134 57.9592 11.714L58.6792 12.542C58.2592 13.046 57.7312 13.43 57.0952 13.694C56.4712 13.958 55.7812 14.09 55.0252 14.09ZM62.1022 14V4.55H63.3982L67.6822 11.804H67.1422L71.4982 4.55H72.6862V14H71.5162V6.008L71.7502 6.116L67.6822 12.848H67.1062L63.0022 6.044L63.2722 5.99V14H62.1022ZM80.2829 14.09C79.3469 14.09 78.5069 13.886 77.7629 13.478C77.0309 13.058 76.4549 12.488 76.0349 11.768C75.6149 11.036 75.4049 10.202 75.4049 9.266C75.4049 8.318 75.6149 7.484 76.0349 6.764C76.4549 6.044 77.0309 5.48 77.7629 5.072C78.5069 4.664 79.3469 4.46 80.2829 4.46C81.0869 4.46 81.8129 4.616 82.4609 4.928C83.1089 5.24 83.6189 5.708 83.9909 6.332L83.0369 6.98C82.7129 6.5 82.3109 6.146 81.8309 5.918C81.3509 5.69 80.8289 5.576 80.2649 5.576C79.5929 5.576 78.9869 5.732 78.4469 6.044C77.9069 6.344 77.4809 6.77 77.1689 7.322C76.8569 7.874 76.7009 8.522 76.7009 9.266C76.7009 10.01 76.8569 10.658 77.1689 11.21C77.4809 11.762 77.9069 12.194 78.4469 12.506C78.9869 12.806 79.5929 12.956 80.2649 12.956C80.8289 12.956 81.3509 12.842 81.8309 12.614C82.3109 12.386 82.7129 12.038 83.0369 11.57L83.9909 12.218C83.6189 12.83 83.1089 13.298 82.4609 13.622C81.8129 13.934 81.0869 14.09 80.2829 14.09ZM92.2511 14V10.598L92.4851 10.868H89.2811C88.0691 10.868 87.1211 10.604 86.4371 10.076C85.7531 9.548 85.4111 8.78 85.4111 7.772C85.4111 6.692 85.7771 5.888 86.5091 5.36C87.2411 4.82 88.2191 4.55 89.4431 4.55H93.4211V14H92.2511ZM85.3391 14L87.9311 10.364H89.2631L86.7251 14H85.3391ZM92.2511 10.22V5.288L92.4851 5.666H89.4791C88.6031 5.666 87.9191 5.834 87.4271 6.17C86.9471 6.506 86.7071 7.052 86.7071 7.808C86.7071 9.212 87.6011 9.914 89.3891 9.914H92.4851L92.2511 10.22ZM105.736 14.09C104.8 14.09 103.96 13.886 103.216 13.478C102.484 13.058 101.908 12.488 101.488 11.768C101.068 11.036 100.858 10.202 100.858 9.266C100.858 8.318 101.068 7.484 101.488 6.764C101.908 6.044 102.484 5.48 103.216 5.072C103.96 4.664 104.8 4.46 105.736 4.46C106.54 4.46 107.266 4.616 107.914 4.928C108.562 5.24 109.072 5.708 109.444 6.332L108.49 6.98C108.166 6.5 107.764 6.146 107.284 5.918C106.804 5.69 106.282 5.576 105.718 5.576C105.046 5.576 104.44 5.732 103.9 6.044C103.36 6.344 102.934 6.77 102.622 7.322C102.31 7.874 102.154 8.522 102.154 9.266C102.154 10.01 102.31 10.658 102.622 11.21C102.934 11.762 103.36 12.194 103.9 12.506C104.44 12.806 105.046 12.956 105.718 12.956C106.282 12.956 106.804 12.842 107.284 12.614C107.764 12.386 108.166 12.038 108.49 11.57L109.444 12.218C109.072 12.83 108.562 13.298 107.914 13.622C107.266 13.934 106.54 14.09 105.736 14.09ZM116.936 14V1.4H122.174C123.506 1.4 124.55 1.676 125.306 2.228C126.074 2.768 126.458 3.566 126.458 4.622C126.458 5.666 126.092 6.458 125.36 6.998C124.628 7.526 123.668 7.79 122.48 7.79L122.786 7.34C124.19 7.34 125.258 7.616 125.99 8.168C126.722 8.72 127.088 9.53 127.088 10.598C127.088 11.678 126.704 12.518 125.936 13.118C125.18 13.706 124.04 14 122.516 14H116.936ZM118.25 12.938H122.516C123.584 12.938 124.394 12.74 124.946 12.344C125.498 11.948 125.774 11.336 125.774 10.508C125.774 9.692 125.498 9.092 124.946 8.708C124.394 8.324 123.584 8.132 122.516 8.132H118.25V12.938ZM118.25 7.106H122.102C123.074 7.106 123.818 6.914 124.334 6.53C124.862 6.134 125.126 5.552 125.126 4.784C125.126 4.016 124.862 3.44 124.334 3.056C123.818 2.66 123.074 2.462 122.102 2.462H118.25V7.106ZM135.98 14V11.912L135.926 11.57V8.078C135.926 7.274 135.698 6.656 135.242 6.224C134.798 5.792 134.132 5.576 133.244 5.576C132.632 5.576 132.05 5.678 131.498 5.882C130.946 6.086 130.478 6.356 130.094 6.692L129.518 5.738C129.998 5.33 130.574 5.018 131.246 4.802C131.918 4.574 132.626 4.46 133.37 4.46C134.594 4.46 135.536 4.766 136.196 5.378C136.868 5.978 137.204 6.896 137.204 8.132V14H135.98ZM132.722 14.09C132.014 14.09 131.396 13.976 130.868 13.748C130.352 13.508 129.956 13.184 129.68 12.776C129.404 12.356 129.266 11.876 129.266 11.336C129.266 10.844 129.38 10.4 129.608 10.004C129.848 9.596 130.232 9.272 130.76 9.032C131.3 8.78 132.02 8.654 132.92 8.654H136.178V9.608H132.956C132.044 9.608 131.408 9.77 131.048 10.094C130.7 10.418 130.526 10.82 130.526 11.3C130.526 11.84 130.736 12.272 131.156 12.596C131.576 12.92 132.164 13.082 132.92 13.082C133.64 13.082 134.258 12.92 134.774 12.596C135.302 12.26 135.686 11.78 135.926 11.156L136.214 12.038C135.974 12.662 135.554 13.16 134.954 13.532C134.366 13.904 133.622 14.09 132.722 14.09ZM140.606 14V4.55H141.902L146.186 11.804H145.646L150.002 4.55H151.19V14H150.02V6.008L150.254 6.116L146.186 12.848H145.61L141.506 6.044L141.776 5.99V14H140.606ZM154.827 14V4.55H156.105V12.056L162.423 4.55H163.557V14H162.279V6.476L155.979 14H154.827ZM171.93 14V4.55H176.106C177.174 4.55 178.014 4.754 178.626 5.162C179.25 5.57 179.562 6.17 179.562 6.962C179.562 7.73 179.268 8.324 178.68 8.744C178.092 9.152 177.318 9.356 176.358 9.356L176.61 8.978C177.738 8.978 178.566 9.188 179.094 9.608C179.622 10.028 179.886 10.634 179.886 11.426C179.886 12.242 179.586 12.878 178.986 13.334C178.398 13.778 177.48 14 176.232 14H171.93ZM173.172 12.992H176.178C176.982 12.992 177.588 12.866 177.996 12.614C178.416 12.35 178.626 11.93 178.626 11.354C178.626 10.778 178.44 10.358 178.068 10.094C177.696 9.83 177.108 9.698 176.304 9.698H173.172V12.992ZM173.172 8.744H176.016C176.748 8.744 177.306 8.606 177.69 8.33C178.086 8.054 178.284 7.652 178.284 7.124C178.284 6.596 178.086 6.2 177.69 5.936C177.306 5.672 176.748 5.54 176.016 5.54H173.172V8.744ZM309.631 13.388V5.666H305.077L304.969 7.772C304.945 8.408 304.903 9.032 304.843 9.644C304.795 10.256 304.705 10.82 304.573 11.336C304.453 11.84 304.279 12.254 304.051 12.578C303.823 12.89 303.529 13.07 303.169 13.118L301.891 12.884C302.263 12.896 302.569 12.764 302.809 12.488C303.049 12.2 303.235 11.81 303.367 11.318C303.499 10.826 303.595 10.268 303.655 9.644C303.715 9.008 303.763 8.36 303.799 7.7L303.925 4.55H310.909V13.388H309.631ZM301.495 16.286V12.884H312.385V16.286H311.179V14H302.701V16.286H301.495ZM313.148 13.982L313.238 12.884C313.322 12.896 313.4 12.914 313.472 12.938C313.556 12.95 313.628 12.956 313.688 12.956C314.072 12.956 314.378 12.812 314.606 12.524C314.846 12.236 315.026 11.852 315.146 11.372C315.266 10.892 315.35 10.352 315.398 9.752C315.446 9.14 315.488 8.528 315.524 7.916L315.686 4.55H322.616V14H321.338V5.288L321.662 5.666H316.514L316.82 5.27L316.676 8.006C316.64 8.822 316.574 9.602 316.478 10.346C316.394 11.09 316.256 11.744 316.064 12.308C315.884 12.872 315.632 13.316 315.308 13.64C314.984 13.952 314.57 14.108 314.066 14.108C313.922 14.108 313.772 14.096 313.616 14.072C313.472 14.048 313.316 14.018 313.148 13.982ZM332.351 14V10.598L332.585 10.868H329.381C328.169 10.868 327.221 10.604 326.537 10.076C325.853 9.548 325.511 8.78 325.511 7.772C325.511 6.692 325.877 5.888 326.609 5.36C327.341 4.82 328.319 4.55 329.543 4.55H333.521V14H332.351ZM325.439 14L328.031 10.364H329.363L326.825 14H325.439ZM332.351 10.22V5.288L332.585 5.666H329.579C328.703 5.666 328.019 5.834 327.527 6.17C327.047 6.506 326.807 7.052 326.807 7.808C326.807 9.212 327.701 9.914 329.489 9.914H332.585L332.351 10.22ZM345.764 14.09C344.852 14.09 344.03 13.886 343.298 13.478C342.578 13.058 342.008 12.488 341.588 11.768C341.168 11.036 340.958 10.202 340.958 9.266C340.958 8.318 341.168 7.484 341.588 6.764C342.008 6.044 342.578 5.48 343.298 5.072C344.018 4.664 344.84 4.46 345.764 4.46C346.7 4.46 347.528 4.664 348.248 5.072C348.98 5.48 349.55 6.044 349.958 6.764C350.378 7.484 350.588 8.318 350.588 9.266C350.588 10.202 350.378 11.036 349.958 11.768C349.55 12.488 348.98 13.058 348.248 13.478C347.516 13.886 346.688 14.09 345.764 14.09ZM345.764 12.956C346.448 12.956 347.054 12.806 347.582 12.506C348.11 12.194 348.524 11.762 348.824 11.21C349.136 10.646 349.292 9.998 349.292 9.266C349.292 8.522 349.136 7.874 348.824 7.322C348.524 6.77 348.11 6.344 347.582 6.044C347.054 5.732 346.454 5.576 345.782 5.576C345.11 5.576 344.51 5.732 343.982 6.044C343.454 6.344 343.034 6.77 342.722 7.322C342.41 7.874 342.254 8.522 342.254 9.266C342.254 9.998 342.41 10.646 342.722 11.21C343.034 11.762 343.454 12.194 343.982 12.506C344.51 12.806 345.104 12.956 345.764 12.956ZM357.567 14.108C356.799 14.108 356.115 13.982 355.515 13.73C354.927 13.478 354.423 13.094 354.003 12.578C353.583 12.062 353.265 11.426 353.049 10.67C352.833 9.902 352.725 9.014 352.725 8.006C352.725 7.106 352.809 6.32 352.977 5.648C353.145 4.964 353.379 4.376 353.679 3.884C353.979 3.392 354.327 2.978 354.723 2.642C355.131 2.294 355.569 2.018 356.037 1.814C356.517 1.598 357.009 1.436 357.513 1.328L361.761 0.337999L361.977 1.526L357.981 2.426C357.729 2.486 357.423 2.57 357.063 2.678C356.715 2.786 356.355 2.948 355.983 3.164C355.623 3.38 355.287 3.68 354.975 4.064C354.663 4.448 354.411 4.946 354.219 5.558C354.039 6.158 353.949 6.908 353.949 7.808C353.949 8 353.955 8.156 353.967 8.276C353.979 8.384 353.991 8.504 354.003 8.636C354.027 8.756 354.045 8.936 354.057 9.176L353.499 8.708C353.631 7.976 353.901 7.34 354.309 6.8C354.717 6.248 355.227 5.822 355.839 5.522C356.463 5.21 357.153 5.054 357.909 5.054C358.785 5.054 359.565 5.246 360.249 5.63C360.933 6.002 361.467 6.524 361.851 7.196C362.247 7.868 362.445 8.648 362.445 9.536C362.445 10.412 362.241 11.198 361.833 11.894C361.437 12.59 360.873 13.136 360.141 13.532C359.409 13.916 358.551 14.108 357.567 14.108ZM357.711 13.046C358.383 13.046 358.977 12.896 359.493 12.596C360.009 12.284 360.411 11.864 360.699 11.336C360.999 10.808 361.149 10.214 361.149 9.554C361.149 8.906 360.999 8.33 360.699 7.826C360.411 7.322 360.009 6.926 359.493 6.638C358.977 6.338 358.377 6.188 357.693 6.188C357.021 6.188 356.427 6.332 355.911 6.62C355.395 6.896 354.987 7.286 354.687 7.79C354.399 8.294 354.255 8.876 354.255 9.536C354.255 10.196 354.399 10.79 354.687 11.318C354.987 11.846 355.395 12.266 355.911 12.578C356.439 12.89 357.039 13.046 357.711 13.046ZM369.144 14.09C368.208 14.09 367.368 13.886 366.624 13.478C365.892 13.058 365.316 12.488 364.896 11.768C364.476 11.036 364.266 10.202 364.266 9.266C364.266 8.318 364.476 7.484 364.896 6.764C365.316 6.044 365.892 5.48 366.624 5.072C367.368 4.664 368.208 4.46 369.144 4.46C369.948 4.46 370.674 4.616 371.322 4.928C371.97 5.24 372.48 5.708 372.852 6.332L371.898 6.98C371.574 6.5 371.172 6.146 370.692 5.918C370.212 5.69 369.69 5.576 369.126 5.576C368.454 5.576 367.848 5.732 367.308 6.044C366.768 6.344 366.342 6.77 366.03 7.322C365.718 7.874 365.562 8.522 365.562 9.266C365.562 10.01 365.718 10.658 366.03 11.21C366.342 11.762 366.768 12.194 367.308 12.506C367.848 12.806 368.454 12.956 369.126 12.956C369.69 12.956 370.212 12.842 370.692 12.614C371.172 12.386 371.574 12.038 371.898 11.57L372.852 12.218C372.48 12.83 371.97 13.298 371.322 13.622C370.674 13.934 369.948 14.09 369.144 14.09ZM375.348 17.582C374.904 17.582 374.478 17.51 374.07 17.366C373.674 17.222 373.332 17.006 373.044 16.718L373.638 15.764C373.878 15.992 374.136 16.166 374.412 16.286C374.7 16.418 375.018 16.484 375.366 16.484C375.786 16.484 376.146 16.364 376.446 16.124C376.758 15.896 377.052 15.488 377.328 14.9L377.94 13.514L378.084 13.316L381.972 4.55H383.232L378.498 15.134C378.234 15.746 377.94 16.232 377.616 16.592C377.304 16.952 376.962 17.204 376.59 17.348C376.218 17.504 375.804 17.582 375.348 17.582ZM377.868 14.27L373.512 4.55H374.844L378.696 13.226L377.868 14.27ZM395.892 14L392.652 9.32L393.714 8.69L397.422 14H395.892ZM390.528 9.788V8.69H393.516V9.788H390.528ZM393.84 9.41L392.616 9.23L395.766 4.55H397.152L393.84 9.41ZM384.696 14H383.166L386.874 8.69L387.918 9.32L384.696 14ZM390.924 14H389.646V4.55H390.924V14ZM390.042 9.788H387.072V8.69H390.042V9.788ZM386.766 9.41L383.436 4.55H384.822L387.954 9.23L386.766 9.41ZM406.029 13.388V5.666H401.475L401.367 7.772C401.343 8.408 401.301 9.032 401.241 9.644C401.193 10.256 401.103 10.82 400.971 11.336C400.851 11.84 400.677 12.254 400.449 12.578C400.221 12.89 399.927 13.07 399.567 13.118L398.289 12.884C398.661 12.896 398.967 12.764 399.207 12.488C399.447 12.2 399.633 11.81 399.765 11.318C399.897 10.826 399.993 10.268 400.053 9.644C400.113 9.008 400.161 8.36 400.197 7.7L400.323 4.55H407.307V13.388H406.029ZM397.893 16.286V12.884H408.783V16.286H407.577V14H399.099V16.286H397.893ZM415.324 14.09C414.34 14.09 413.476 13.886 412.732 13.478C411.988 13.058 411.406 12.488 410.986 11.768C410.566 11.036 410.356 10.202 410.356 9.266C410.356 8.33 410.554 7.502 410.95 6.782C411.358 6.062 411.91 5.498 412.606 5.09C413.314 4.67 414.106 4.46 414.982 4.46C415.87 4.46 416.656 4.664 417.34 5.072C418.036 5.468 418.582 6.032 418.978 6.764C419.374 7.484 419.572 8.318 419.572 9.266C419.572 9.326 419.566 9.392 419.554 9.464C419.554 9.524 419.554 9.59 419.554 9.662H411.328V8.708H418.87L418.366 9.086C418.366 8.402 418.216 7.796 417.916 7.268C417.628 6.728 417.232 6.308 416.728 6.008C416.224 5.708 415.642 5.558 414.982 5.558C414.334 5.558 413.752 5.708 413.236 6.008C412.72 6.308 412.318 6.728 412.03 7.268C411.742 7.808 411.598 8.426 411.598 9.122V9.32C411.598 10.04 411.754 10.676 412.066 11.228C412.39 11.768 412.834 12.194 413.398 12.506C413.974 12.806 414.628 12.956 415.36 12.956C415.936 12.956 416.47 12.854 416.962 12.65C417.466 12.446 417.898 12.134 418.258 11.714L418.978 12.542C418.558 13.046 418.03 13.43 417.394 13.694C416.77 13.958 416.08 14.09 415.324 14.09ZM422.401 14V4.55H423.679V8.726H429.637V4.55H430.915V14H429.637V9.824H423.679V14H422.401ZM434.547 14V4.55H435.825V12.056L442.143 4.55H443.277V14H441.999V6.476L435.699 14H434.547ZM453.042 14V10.598L453.276 10.868H450.072C448.86 10.868 447.912 10.604 447.228 10.076C446.544 9.548 446.202 8.78 446.202 7.772C446.202 6.692 446.568 5.888 447.3 5.36C448.032 4.82 449.01 4.55 450.234 4.55H454.212V14H453.042ZM446.13 14L448.722 10.364H450.054L447.516 14H446.13ZM453.042 10.22V5.288L453.276 5.666H450.27C449.394 5.666 448.71 5.834 448.218 6.17C447.738 6.506 447.498 7.052 447.498 7.808C447.498 9.212 448.392 9.914 450.18 9.914H453.276L453.042 10.22ZM467.445 14.09C466.629 14.09 465.891 13.904 465.231 13.532C464.571 13.148 464.043 12.602 463.647 11.894C463.263 11.174 463.071 10.298 463.071 9.266C463.071 8.234 463.263 7.364 463.647 6.656C464.031 5.936 464.553 5.39 465.213 5.018C465.873 4.646 466.617 4.46 467.445 4.46C468.345 4.46 469.149 4.664 469.857 5.072C470.577 5.468 471.141 6.032 471.549 6.764C471.957 7.484 472.161 8.318 472.161 9.266C472.161 10.226 471.957 11.066 471.549 11.786C471.141 12.506 470.577 13.07 469.857 13.478C469.149 13.886 468.345 14.09 467.445 14.09ZM462.567 17.492V4.55H463.791V7.394L463.665 9.284L463.845 11.192V17.492H462.567ZM467.355 12.956C468.027 12.956 468.627 12.806 469.155 12.506C469.683 12.194 470.103 11.762 470.415 11.21C470.727 10.646 470.883 9.998 470.883 9.266C470.883 8.534 470.727 7.892 470.415 7.34C470.103 6.788 469.683 6.356 469.155 6.044C468.627 5.732 468.027 5.576 467.355 5.576C466.683 5.576 466.077 5.732 465.537 6.044C465.009 6.356 464.589 6.788 464.277 7.34C463.977 7.892 463.827 8.534 463.827 9.266C463.827 9.998 463.977 10.646 464.277 11.21C464.589 11.762 465.009 12.194 465.537 12.506C466.077 12.806 466.683 12.956 467.355 12.956ZM478.957 14.09C477.973 14.09 477.109 13.886 476.365 13.478C475.621 13.058 475.039 12.488 474.619 11.768C474.199 11.036 473.989 10.202 473.989 9.266C473.989 8.33 474.187 7.502 474.583 6.782C474.991 6.062 475.543 5.498 476.239 5.09C476.947 4.67 477.739 4.46 478.615 4.46C479.503 4.46 480.289 4.664 480.973 5.072C481.669 5.468 482.215 6.032 482.611 6.764C483.007 7.484 483.205 8.318 483.205 9.266C483.205 9.326 483.199 9.392 483.187 9.464C483.187 9.524 483.187 9.59 483.187 9.662H474.961V8.708H482.503L481.999 9.086C481.999 8.402 481.849 7.796 481.549 7.268C481.261 6.728 480.865 6.308 480.361 6.008C479.857 5.708 479.275 5.558 478.615 5.558C477.967 5.558 477.385 5.708 476.869 6.008C476.353 6.308 475.951 6.728 475.663 7.268C475.375 7.808 475.231 8.426 475.231 9.122V9.32C475.231 10.04 475.387 10.676 475.699 11.228C476.023 11.768 476.467 12.194 477.031 12.506C477.607 12.806 478.261 12.956 478.993 12.956C479.569 12.956 480.103 12.854 480.595 12.65C481.099 12.446 481.531 12.134 481.891 11.714L482.611 12.542C482.191 13.046 481.663 13.43 481.027 13.694C480.403 13.958 479.713 14.09 478.957 14.09ZM486.034 14V4.55H487.33L491.614 11.804H491.074L495.43 4.55H496.618V14H495.448V6.008L495.682 6.116L491.614 12.848H491.038L486.934 6.044L487.204 5.99V14H486.034ZM504.143 14.09C503.231 14.09 502.409 13.886 501.677 13.478C500.957 13.058 500.387 12.488 499.967 11.768C499.547 11.036 499.337 10.202 499.337 9.266C499.337 8.318 499.547 7.484 499.967 6.764C500.387 6.044 500.957 5.48 501.677 5.072C502.397 4.664 503.219 4.46 504.143 4.46C505.079 4.46 505.907 4.664 506.627 5.072C507.359 5.48 507.929 6.044 508.337 6.764C508.757 7.484 508.967 8.318 508.967 9.266C508.967 10.202 508.757 11.036 508.337 11.768C507.929 12.488 507.359 13.058 506.627 13.478C505.895 13.886 505.067 14.09 504.143 14.09ZM504.143 12.956C504.827 12.956 505.433 12.806 505.961 12.506C506.489 12.194 506.903 11.762 507.203 11.21C507.515 10.646 507.671 9.998 507.671 9.266C507.671 8.522 507.515 7.874 507.203 7.322C506.903 6.77 506.489 6.344 505.961 6.044C505.433 5.732 504.833 5.576 504.161 5.576C503.489 5.576 502.889 5.732 502.361 6.044C501.833 6.344 501.413 6.77 501.101 7.322C500.789 7.874 500.633 8.522 500.633 9.266C500.633 9.998 500.789 10.646 501.101 11.21C501.413 11.762 501.833 12.194 502.361 12.506C502.889 12.806 503.483 12.956 504.143 12.956ZM511.698 14V4.55H512.976V8.726H518.934V4.55H520.212V14H518.934V9.824H512.976V14H511.698ZM525.644 14V5.324L525.968 5.666H522.062V4.55H530.504V5.666H526.598L526.922 5.324V14H525.644ZM538.22 14V11.912L538.166 11.57V8.078C538.166 7.274 537.938 6.656 537.482 6.224C537.038 5.792 536.372 5.576 535.484 5.576C534.872 5.576 534.29 5.678 533.738 5.882C533.186 6.086 532.718 6.356 532.334 6.692L531.758 5.738C532.238 5.33 532.814 5.018 533.486 4.802C534.158 4.574 534.866 4.46 535.61 4.46C536.834 4.46 537.776 4.766 538.436 5.378C539.108 5.978 539.444 6.896 539.444 8.132V14H538.22ZM534.962 14.09C534.254 14.09 533.636 13.976 533.108 13.748C532.592 13.508 532.196 13.184 531.92 12.776C531.644 12.356 531.506 11.876 531.506 11.336C531.506 10.844 531.62 10.4 531.848 10.004C532.088 9.596 532.472 9.272 533 9.032C533.54 8.78 534.26 8.654 535.16 8.654H538.418V9.608H535.196C534.284 9.608 533.648 9.77 533.288 10.094C532.94 10.418 532.766 10.82 532.766 11.3C532.766 11.84 532.976 12.272 533.396 12.596C533.816 12.92 534.404 13.082 535.16 13.082C535.88 13.082 536.498 12.92 537.014 12.596C537.542 12.26 537.926 11.78 538.166 11.156L538.454 12.038C538.214 12.662 537.794 13.16 537.194 13.532C536.606 13.904 535.862 14.09 534.962 14.09ZM547.557 14V4.55H548.835V12.056L555.153 4.55H556.287V14H555.009V6.476L548.709 14H547.557ZM40.8591 36.09C40.0431 36.09 39.3051 35.904 38.6451 35.532C37.9851 35.148 37.4571 34.602 37.0611 33.894C36.6771 33.174 36.4851 32.298 36.4851 31.266C36.4851 30.234 36.6771 29.364 37.0611 28.656C37.4451 27.936 37.9671 27.39 38.6271 27.018C39.2871 26.646 40.0311 26.46 40.8591 26.46C41.7591 26.46 42.5631 26.664 43.2711 27.072C43.9911 27.468 44.5551 28.032 44.9631 28.764C45.3711 29.484 45.5751 30.318 45.5751 31.266C45.5751 32.226 45.3711 33.066 44.9631 33.786C44.5551 34.506 43.9911 35.07 43.2711 35.478C42.5631 35.886 41.7591 36.09 40.8591 36.09ZM35.9811 39.492V26.55H37.2051V29.394L37.0791 31.284L37.2591 33.192V39.492H35.9811ZM40.7691 34.956C41.4411 34.956 42.0411 34.806 42.5691 34.506C43.0971 34.194 43.5171 33.762 43.8291 33.21C44.1411 32.646 44.2971 31.998 44.2971 31.266C44.2971 30.534 44.1411 29.892 43.8291 29.34C43.5171 28.788 43.0971 28.356 42.5691 28.044C42.0411 27.732 41.4411 27.576 40.7691 27.576C40.0971 27.576 39.4911 27.732 38.9511 28.044C38.4231 28.356 38.0031 28.788 37.6911 29.34C37.3911 29.892 37.2411 30.534 37.2411 31.266C37.2411 31.998 37.3911 32.646 37.6911 33.21C38.0031 33.762 38.4231 34.194 38.9511 34.506C39.4911 34.806 40.0971 34.956 40.7691 34.956ZM54.1362 36V33.912L54.0822 33.57V30.078C54.0822 29.274 53.8542 28.656 53.3982 28.224C52.9542 27.792 52.2882 27.576 51.4002 27.576C50.7882 27.576 50.2062 27.678 49.6542 27.882C49.1022 28.086 48.6342 28.356 48.2502 28.692L47.6742 27.738C48.1542 27.33 48.7302 27.018 49.4022 26.802C50.0742 26.574 50.7822 26.46 51.5262 26.46C52.7502 26.46 53.6922 26.766 54.3522 27.378C55.0242 27.978 55.3602 28.896 55.3602 30.132V36H54.1362ZM50.8782 36.09C50.1702 36.09 49.5522 35.976 49.0242 35.748C48.5082 35.508 48.1122 35.184 47.8362 34.776C47.5602 34.356 47.4222 33.876 47.4222 33.336C47.4222 32.844 47.5362 32.4 47.7642 32.004C48.0042 31.596 48.3882 31.272 48.9162 31.032C49.4562 30.78 50.1762 30.654 51.0762 30.654H54.3342V31.608H51.1122C50.2002 31.608 49.5642 31.77 49.2042 32.094C48.8562 32.418 48.6822 32.82 48.6822 33.3C48.6822 33.84 48.8922 34.272 49.3122 34.596C49.7322 34.92 50.3202 35.082 51.0762 35.082C51.7962 35.082 52.4142 34.92 52.9302 34.596C53.4582 34.26 53.8422 33.78 54.0822 33.156L54.3702 34.038C54.1302 34.662 53.7102 35.16 53.1102 35.532C52.5222 35.904 51.7782 36.09 50.8782 36.09ZM62.7223 36.09C61.7863 36.09 60.9463 35.886 60.2023 35.478C59.4703 35.058 58.8943 34.488 58.4743 33.768C58.0543 33.036 57.8443 32.202 57.8443 31.266C57.8443 30.318 58.0543 29.484 58.4743 28.764C58.8943 28.044 59.4703 27.48 60.2023 27.072C60.9463 26.664 61.7863 26.46 62.7223 26.46C63.5263 26.46 64.2523 26.616 64.9003 26.928C65.5483 27.24 66.0583 27.708 66.4303 28.332L65.4763 28.98C65.1523 28.5 64.7503 28.146 64.2703 27.918C63.7903 27.69 63.2683 27.576 62.7043 27.576C62.0323 27.576 61.4263 27.732 60.8863 28.044C60.3463 28.344 59.9203 28.77 59.6083 29.322C59.2963 29.874 59.1403 30.522 59.1403 31.266C59.1403 32.01 59.2963 32.658 59.6083 33.21C59.9203 33.762 60.3463 34.194 60.8863 34.506C61.4263 34.806 62.0323 34.956 62.7043 34.956C63.2683 34.956 63.7903 34.842 64.2703 34.614C64.7503 34.386 65.1523 34.038 65.4763 33.57L66.4303 34.218C66.0583 34.83 65.5483 35.298 64.9003 35.622C64.2523 35.934 63.5263 36.09 62.7223 36.09ZM74.8809 32.004C74.3289 32.244 73.7709 32.436 73.2069 32.58C72.6549 32.712 72.1029 32.778 71.5509 32.778C70.4349 32.778 69.5529 32.526 68.9049 32.022C68.2569 31.506 67.9329 30.714 67.9329 29.646V26.55H69.1929V29.574C69.1929 30.294 69.4269 30.834 69.8949 31.194C70.3629 31.554 70.9929 31.734 71.7849 31.734C72.2649 31.734 72.7689 31.674 73.2969 31.554C73.8249 31.422 74.3589 31.236 74.8989 30.996L74.8809 32.004ZM74.7729 36V26.55H76.0509V36H74.7729ZM83.7303 36.09C82.7463 36.09 81.8823 35.886 81.1383 35.478C80.3943 35.058 79.8123 34.488 79.3923 33.768C78.9723 33.036 78.7623 32.202 78.7623 31.266C78.7623 30.33 78.9603 29.502 79.3563 28.782C79.7643 28.062 80.3163 27.498 81.0123 27.09C81.7203 26.67 82.5123 26.46 83.3883 26.46C84.2763 26.46 85.0623 26.664 85.7463 27.072C86.4423 27.468 86.9883 28.032 87.3843 28.764C87.7803 29.484 87.9783 30.318 87.9783 31.266C87.9783 31.326 87.9723 31.392 87.9603 31.464C87.9603 31.524 87.9603 31.59 87.9603 31.662H79.7343V30.708H87.2763L86.7723 31.086C86.7723 30.402 86.6223 29.796 86.3223 29.268C86.0343 28.728 85.6383 28.308 85.1343 28.008C84.6303 27.708 84.0483 27.558 83.3883 27.558C82.7403 27.558 82.1583 27.708 81.6423 28.008C81.1263 28.308 80.7243 28.728 80.4363 29.268C80.1483 29.808 80.0043 30.426 80.0043 31.122V31.32C80.0043 32.04 80.1603 32.676 80.4723 33.228C80.7963 33.768 81.2403 34.194 81.8043 34.506C82.3803 34.806 83.0343 34.956 83.7663 34.956C84.3423 34.956 84.8763 34.854 85.3683 34.65C85.8723 34.446 86.3043 34.134 86.6643 33.714L87.3843 34.542C86.9643 35.046 86.4363 35.43 85.8003 35.694C85.1763 35.958 84.4863 36.09 83.7303 36.09ZM84.9903 24.66C84.7863 24.66 84.6063 24.588 84.4503 24.444C84.2943 24.3 84.2163 24.114 84.2163 23.886C84.2163 23.658 84.2943 23.472 84.4503 23.328C84.6063 23.184 84.7863 23.112 84.9903 23.112C85.2063 23.112 85.3863 23.184 85.5303 23.328C85.6863 23.472 85.7643 23.658 85.7643 23.886C85.7643 24.114 85.6863 24.3 85.5303 24.444C85.3863 24.588 85.2063 24.66 84.9903 24.66ZM81.7863 24.66C81.5703 24.66 81.3843 24.588 81.2283 24.444C81.0843 24.3 81.0123 24.114 81.0123 23.886C81.0123 23.658 81.0843 23.472 81.2283 23.328C81.3843 23.184 81.5703 23.112 81.7863 23.112C81.9903 23.112 82.1703 23.184 82.3263 23.328C82.4823 23.472 82.5603 23.658 82.5603 23.886C82.5603 24.114 82.4823 24.3 82.3263 24.444C82.1703 24.588 81.9903 24.66 81.7863 24.66ZM92.1854 36V27.324L92.5094 27.666H88.6034V26.55H97.0454V27.666H93.1394L93.4634 27.324V36H92.1854ZM104.761 36V33.912L104.707 33.57V30.078C104.707 29.274 104.479 28.656 104.023 28.224C103.579 27.792 102.913 27.576 102.025 27.576C101.413 27.576 100.831 27.678 100.279 27.882C99.7272 28.086 99.2592 28.356 98.8752 28.692L98.2992 27.738C98.7792 27.33 99.3552 27.018 100.027 26.802C100.699 26.574 101.407 26.46 102.151 26.46C103.375 26.46 104.317 26.766 104.977 27.378C105.649 27.978 105.985 28.896 105.985 30.132V36H104.761ZM101.503 36.09C100.795 36.09 100.177 35.976 99.6492 35.748C99.1332 35.508 98.7372 35.184 98.4612 34.776C98.1852 34.356 98.0472 33.876 98.0472 33.336C98.0472 32.844 98.1612 32.4 98.3892 32.004C98.6292 31.596 99.0132 31.272 99.5412 31.032C100.081 30.78 100.801 30.654 101.701 30.654H104.959V31.608H101.737C100.825 31.608 100.189 31.77 99.8292 32.094C99.4812 32.418 99.3072 32.82 99.3072 33.3C99.3072 33.84 99.5172 34.272 99.9372 34.596C100.357 34.92 100.945 35.082 101.701 35.082C102.421 35.082 103.039 34.92 103.555 34.596C104.083 34.26 104.467 33.78 104.707 33.156L104.995 34.038C104.755 34.662 104.335 35.16 103.735 35.532C103.147 35.904 102.403 36.09 101.503 36.09ZM118.058 36.09C117.122 36.09 116.282 35.886 115.538 35.478C114.806 35.058 114.23 34.488 113.81 33.768C113.39 33.036 113.18 32.202 113.18 31.266C113.18 30.318 113.39 29.484 113.81 28.764C114.23 28.044 114.806 27.48 115.538 27.072C116.282 26.664 117.122 26.46 118.058 26.46C118.862 26.46 119.588 26.616 120.236 26.928C120.884 27.24 121.394 27.708 121.766 28.332L120.812 28.98C120.488 28.5 120.086 28.146 119.606 27.918C119.126 27.69 118.604 27.576 118.04 27.576C117.368 27.576 116.762 27.732 116.222 28.044C115.682 28.344 115.256 28.77 114.944 29.322C114.632 29.874 114.476 30.522 114.476 31.266C114.476 32.01 114.632 32.658 114.944 33.21C115.256 33.762 115.682 34.194 116.222 34.506C116.762 34.806 117.368 34.956 118.04 34.956C118.604 34.956 119.126 34.842 119.606 34.614C120.086 34.386 120.488 34.038 120.812 33.57L121.766 34.218C121.394 34.83 120.884 35.298 120.236 35.622C119.588 35.934 118.862 36.09 118.058 36.09ZM125.865 36V27.324L126.189 27.666H122.283V26.55H130.725V27.666H126.819L127.143 27.324V36H125.865ZM136.021 36.09C135.109 36.09 134.287 35.886 133.555 35.478C132.835 35.058 132.265 34.488 131.845 33.768C131.425 33.036 131.215 32.202 131.215 31.266C131.215 30.318 131.425 29.484 131.845 28.764C132.265 28.044 132.835 27.48 133.555 27.072C134.275 26.664 135.097 26.46 136.021 26.46C136.957 26.46 137.785 26.664 138.505 27.072C139.237 27.48 139.807 28.044 140.215 28.764C140.635 29.484 140.845 30.318 140.845 31.266C140.845 32.202 140.635 33.036 140.215 33.768C139.807 34.488 139.237 35.058 138.505 35.478C137.773 35.886 136.945 36.09 136.021 36.09ZM136.021 34.956C136.705 34.956 137.311 34.806 137.839 34.506C138.367 34.194 138.781 33.762 139.081 33.21C139.393 32.646 139.549 31.998 139.549 31.266C139.549 30.522 139.393 29.874 139.081 29.322C138.781 28.77 138.367 28.344 137.839 28.044C137.311 27.732 136.711 27.576 136.039 27.576C135.367 27.576 134.767 27.732 134.239 28.044C133.711 28.344 133.291 28.77 132.979 29.322C132.667 29.874 132.511 30.522 132.511 31.266C132.511 31.998 132.667 32.646 132.979 33.21C133.291 33.762 133.711 34.194 134.239 34.506C134.767 34.806 135.361 34.956 136.021 34.956ZM143.577 36V26.55H144.855V34.056L151.173 26.55H152.307V36H151.029V28.476L144.729 36H143.577ZM155.969 36V26.55H157.265L161.549 33.804H161.009L165.365 26.55H166.553V36H165.383V28.008L165.617 28.116L161.549 34.848H160.973L156.869 28.044L157.139 27.99V36H155.969ZM174.078 36.09C173.166 36.09 172.344 35.886 171.612 35.478C170.892 35.058 170.322 34.488 169.902 33.768C169.482 33.036 169.272 32.202 169.272 31.266C169.272 30.318 169.482 29.484 169.902 28.764C170.322 28.044 170.892 27.48 171.612 27.072C172.332 26.664 173.154 26.46 174.078 26.46C175.014 26.46 175.842 26.664 176.562 27.072C177.294 27.48 177.864 28.044 178.272 28.764C178.692 29.484 178.902 30.318 178.902 31.266C178.902 32.202 178.692 33.036 178.272 33.768C177.864 34.488 177.294 35.058 176.562 35.478C175.83 35.886 175.002 36.09 174.078 36.09ZM174.078 34.956C174.762 34.956 175.368 34.806 175.896 34.506C176.424 34.194 176.838 33.762 177.138 33.21C177.45 32.646 177.606 31.998 177.606 31.266C177.606 30.522 177.45 29.874 177.138 29.322C176.838 28.77 176.424 28.344 175.896 28.044C175.368 27.732 174.768 27.576 174.096 27.576C173.424 27.576 172.824 27.732 172.296 28.044C171.768 28.344 171.348 28.77 171.036 29.322C170.724 29.874 170.568 30.522 170.568 31.266C170.568 31.998 170.724 32.646 171.036 33.21C171.348 33.762 171.768 34.194 172.296 34.506C172.824 34.806 173.418 34.956 174.078 34.956ZM185.593 36.09C184.657 36.09 183.817 35.886 183.073 35.478C182.341 35.058 181.765 34.488 181.345 33.768C180.925 33.036 180.715 32.202 180.715 31.266C180.715 30.318 180.925 29.484 181.345 28.764C181.765 28.044 182.341 27.48 183.073 27.072C183.817 26.664 184.657 26.46 185.593 26.46C186.397 26.46 187.123 26.616 187.771 26.928C188.419 27.24 188.929 27.708 189.301 28.332L188.347 28.98C188.023 28.5 187.621 28.146 187.141 27.918C186.661 27.69 186.139 27.576 185.575 27.576C184.903 27.576 184.297 27.732 183.757 28.044C183.217 28.344 182.791 28.77 182.479 29.322C182.167 29.874 182.011 30.522 182.011 31.266C182.011 32.01 182.167 32.658 182.479 33.21C182.791 33.762 183.217 34.194 183.757 34.506C184.297 34.806 184.903 34.956 185.575 34.956C186.139 34.956 186.661 34.842 187.141 34.614C187.621 34.386 188.023 34.038 188.347 33.57L189.301 34.218C188.929 34.83 188.419 35.298 187.771 35.622C187.123 35.934 186.397 36.09 185.593 36.09ZM193.4 36V27.324L193.724 27.666H189.818V26.55H198.26V27.666H194.354L194.678 27.324V36H193.4ZM200.108 36V26.55H201.386V34.056L207.704 26.55H208.838V36H207.56V28.476L201.26 36H200.108ZM212.591 36.09C212.327 36.09 212.099 35.994 211.907 35.802C211.727 35.61 211.637 35.376 211.637 35.1C211.637 34.812 211.727 34.578 211.907 34.398C212.099 34.218 212.327 34.128 212.591 34.128C212.855 34.128 213.077 34.218 213.257 34.398C213.449 34.578 213.545 34.812 213.545 35.1C213.545 35.376 213.449 35.61 213.257 35.802C213.077 35.994 212.855 36.09 212.591 36.09ZM221.116 34.758C221.728 34.998 222.304 35.058 222.844 34.938C223.384 34.806 223.882 34.38 224.338 33.66L224.95 32.688L225.076 32.526L229.9 23.4H231.232L225.508 33.948C225.124 34.68 224.668 35.226 224.14 35.586C223.624 35.946 223.072 36.138 222.484 36.162C221.908 36.186 221.326 36.078 220.738 35.838L221.116 34.758ZM225.04 33.732L219.586 23.4H221.008L225.76 32.634L225.04 33.732ZM239.558 36L235.67 31.32L236.732 30.69L241.07 36H239.558ZM232.628 36V26.55H233.906V36H232.628ZM233.51 31.788V30.69H236.552V31.788H233.51ZM236.84 31.41L235.652 31.23L239.414 26.55H240.8L236.84 31.41ZM248.779 36V33.912L248.725 33.57V30.078C248.725 29.274 248.497 28.656 248.041 28.224C247.597 27.792 246.931 27.576 246.043 27.576C245.431 27.576 244.849 27.678 244.297 27.882C243.745 28.086 243.277 28.356 242.893 28.692L242.317 27.738C242.797 27.33 243.373 27.018 244.045 26.802C244.717 26.574 245.425 26.46 246.169 26.46C247.393 26.46 248.335 26.766 248.995 27.378C249.667 27.978 250.003 28.896 250.003 30.132V36H248.779ZM245.521 36.09C244.813 36.09 244.195 35.976 243.667 35.748C243.151 35.508 242.755 35.184 242.479 34.776C242.203 34.356 242.065 33.876 242.065 33.336C242.065 32.844 242.179 32.4 242.407 32.004C242.647 31.596 243.031 31.272 243.559 31.032C244.099 30.78 244.819 30.654 245.719 30.654H248.977V31.608H245.755C244.843 31.608 244.207 31.77 243.847 32.094C243.499 32.418 243.325 32.82 243.325 33.3C243.325 33.84 243.535 34.272 243.955 34.596C244.375 34.92 244.963 35.082 245.719 35.082C246.439 35.082 247.057 34.92 247.573 34.596C248.101 34.26 248.485 33.78 248.725 33.156L249.013 34.038C248.773 34.662 248.353 35.16 247.753 35.532C247.165 35.904 246.421 36.09 245.521 36.09ZM264.619 36L261.379 31.32L262.441 30.69L266.149 36H264.619ZM259.255 31.788V30.69H262.243V31.788H259.255ZM262.567 31.41L261.343 31.23L264.493 26.55H265.879L262.567 31.41ZM253.423 36H251.893L255.601 30.69L256.645 31.32L253.423 36ZM259.651 36H258.373V26.55H259.651V36ZM258.769 31.788H255.799V30.69H258.769V31.788ZM255.493 31.41L252.163 26.55H253.549L256.681 31.23L255.493 31.41ZM268.276 36V26.55H269.554V34.056L275.872 26.55H277.006V36H275.728V28.476L269.428 36H268.276ZM282.469 36V27.324L282.793 27.666H278.887V26.55H287.329V27.666H283.423L283.747 27.324V36H282.469ZM292.787 36.09C291.803 36.09 290.939 35.886 290.195 35.478C289.451 35.058 288.869 34.488 288.449 33.768C288.029 33.036 287.819 32.202 287.819 31.266C287.819 30.33 288.017 29.502 288.413 28.782C288.821 28.062 289.373 27.498 290.069 27.09C290.777 26.67 291.569 26.46 292.445 26.46C293.333 26.46 294.119 26.664 294.803 27.072C295.499 27.468 296.045 28.032 296.441 28.764C296.837 29.484 297.035 30.318 297.035 31.266C297.035 31.326 297.029 31.392 297.017 31.464C297.017 31.524 297.017 31.59 297.017 31.662H288.791V30.708H296.333L295.829 31.086C295.829 30.402 295.679 29.796 295.379 29.268C295.091 28.728 294.695 28.308 294.191 28.008C293.687 27.708 293.105 27.558 292.445 27.558C291.797 27.558 291.215 27.708 290.699 28.008C290.183 28.308 289.781 28.728 289.493 29.268C289.205 29.808 289.061 30.426 289.061 31.122V31.32C289.061 32.04 289.217 32.676 289.529 33.228C289.853 33.768 290.297 34.194 290.861 34.506C291.437 34.806 292.091 34.956 292.823 34.956C293.399 34.956 293.933 34.854 294.425 34.65C294.929 34.446 295.361 34.134 295.721 33.714L296.441 34.542C296.021 35.046 295.493 35.43 294.857 35.694C294.233 35.958 293.543 36.09 292.787 36.09ZM304.881 36V23.4H310.119C311.451 23.4 312.495 23.676 313.251 24.228C314.019 24.768 314.403 25.566 314.403 26.622C314.403 27.666 314.037 28.458 313.305 28.998C312.573 29.526 311.613 29.79 310.425 29.79L310.731 29.34C312.135 29.34 313.203 29.616 313.935 30.168C314.667 30.72 315.033 31.53 315.033 32.598C315.033 33.678 314.649 34.518 313.881 35.118C313.125 35.706 311.985 36 310.461 36H304.881ZM306.195 34.938H310.461C311.529 34.938 312.339 34.74 312.891 34.344C313.443 33.948 313.719 33.336 313.719 32.508C313.719 31.692 313.443 31.092 312.891 30.708C312.339 30.324 311.529 30.132 310.461 30.132H306.195V34.938ZM306.195 29.106H310.047C311.019 29.106 311.763 28.914 312.279 28.53C312.807 28.134 313.071 27.552 313.071 26.784C313.071 26.016 312.807 25.44 312.279 25.056C311.763 24.66 311.019 24.462 310.047 24.462H306.195V29.106ZM323.925 36V33.912L323.871 33.57V30.078C323.871 29.274 323.643 28.656 323.187 28.224C322.743 27.792 322.077 27.576 321.189 27.576C320.577 27.576 319.995 27.678 319.443 27.882C318.891 28.086 318.423 28.356 318.039 28.692L317.463 27.738C317.943 27.33 318.519 27.018 319.191 26.802C319.863 26.574 320.571 26.46 321.315 26.46C322.539 26.46 323.481 26.766 324.141 27.378C324.813 27.978 325.149 28.896 325.149 30.132V36H323.925ZM320.667 36.09C319.959 36.09 319.341 35.976 318.813 35.748C318.297 35.508 317.901 35.184 317.625 34.776C317.349 34.356 317.211 33.876 317.211 33.336C317.211 32.844 317.325 32.4 317.553 32.004C317.793 31.596 318.177 31.272 318.705 31.032C319.245 30.78 319.965 30.654 320.865 30.654H324.123V31.608H320.901C319.989 31.608 319.353 31.77 318.993 32.094C318.645 32.418 318.471 32.82 318.471 33.3C318.471 33.84 318.681 34.272 319.101 34.596C319.521 34.92 320.109 35.082 320.865 35.082C321.585 35.082 322.203 34.92 322.719 34.596C323.247 34.26 323.631 33.78 323.871 33.156L324.159 34.038C323.919 34.662 323.499 35.16 322.899 35.532C322.311 35.904 321.567 36.09 320.667 36.09ZM334.761 34.884L334.473 35.226V26.55H335.751V35.226L335.409 34.884H340.683L340.341 35.226V26.55H341.619V36H328.551V26.55H329.829V35.226L329.505 34.884H334.761ZM355.83 36V33.912L355.776 33.57V30.078C355.776 29.274 355.548 28.656 355.092 28.224C354.648 27.792 353.982 27.576 353.094 27.576C352.482 27.576 351.9 27.678 351.348 27.882C350.796 28.086 350.328 28.356 349.944 28.692L349.368 27.738C349.848 27.33 350.424 27.018 351.096 26.802C351.768 26.574 352.476 26.46 353.22 26.46C354.444 26.46 355.386 26.766 356.046 27.378C356.718 27.978 357.054 28.896 357.054 30.132V36H355.83ZM352.572 36.09C351.864 36.09 351.246 35.976 350.718 35.748C350.202 35.508 349.806 35.184 349.53 34.776C349.254 34.356 349.116 33.876 349.116 33.336C349.116 32.844 349.23 32.4 349.458 32.004C349.698 31.596 350.082 31.272 350.61 31.032C351.15 30.78 351.87 30.654 352.77 30.654H356.028V31.608H352.806C351.894 31.608 351.258 31.77 350.898 32.094C350.55 32.418 350.376 32.82 350.376 33.3C350.376 33.84 350.586 34.272 351.006 34.596C351.426 34.92 352.014 35.082 352.77 35.082C353.49 35.082 354.108 34.92 354.624 34.596C355.152 34.26 355.536 33.78 355.776 33.156L356.064 34.038C355.824 34.662 355.404 35.16 354.804 35.532C354.216 35.904 353.472 36.09 352.572 36.09ZM367.386 36L363.498 31.32L364.56 30.69L368.898 36H367.386ZM360.456 36V26.55H361.734V36H360.456ZM361.338 31.788V30.69H364.38V31.788H361.338ZM364.668 31.41L363.48 31.23L367.242 26.55H368.628L364.668 31.41ZM372.521 36V27.324L372.845 27.666H368.939V26.55H377.381V27.666H373.475L373.799 27.324V36H372.521ZM379.391 39.582C378.947 39.582 378.521 39.51 378.113 39.366C377.717 39.222 377.375 39.006 377.087 38.718L377.681 37.764C377.921 37.992 378.179 38.166 378.455 38.286C378.743 38.418 379.061 38.484 379.409 38.484C379.829 38.484 380.189 38.364 380.489 38.124C380.801 37.896 381.095 37.488 381.371 36.9L381.983 35.514L382.127 35.316L386.015 26.55H387.275L382.541 37.134C382.277 37.746 381.983 38.232 381.659 38.592C381.347 38.952 381.005 39.204 380.633 39.348C380.261 39.504 379.847 39.582 379.391 39.582ZM381.911 36.27L377.555 26.55H378.887L382.739 35.226L381.911 36.27ZM394.853 36V33.912L394.799 33.57V30.078C394.799 29.274 394.571 28.656 394.115 28.224C393.671 27.792 393.005 27.576 392.117 27.576C391.505 27.576 390.923 27.678 390.371 27.882C389.819 28.086 389.351 28.356 388.967 28.692L388.391 27.738C388.871 27.33 389.447 27.018 390.119 26.802C390.791 26.574 391.499 26.46 392.243 26.46C393.467 26.46 394.409 26.766 395.069 27.378C395.741 27.978 396.077 28.896 396.077 30.132V36H394.853ZM391.595 36.09C390.887 36.09 390.269 35.976 389.741 35.748C389.225 35.508 388.829 35.184 388.553 34.776C388.277 34.356 388.139 33.876 388.139 33.336C388.139 32.844 388.253 32.4 388.481 32.004C388.721 31.596 389.105 31.272 389.633 31.032C390.173 30.78 390.893 30.654 391.793 30.654H395.051V31.608H391.829C390.917 31.608 390.281 31.77 389.921 32.094C389.573 32.418 389.399 32.82 389.399 33.3C389.399 33.84 389.609 34.272 390.029 34.596C390.449 34.92 391.037 35.082 391.793 35.082C392.513 35.082 393.131 34.92 393.647 34.596C394.175 34.26 394.559 33.78 394.799 33.156L395.087 34.038C394.847 34.662 394.427 35.16 393.827 35.532C393.239 35.904 392.495 36.09 391.595 36.09ZM397.751 35.982L397.841 34.884C397.925 34.896 398.003 34.914 398.075 34.938C398.159 34.95 398.231 34.956 398.291 34.956C398.675 34.956 398.981 34.812 399.209 34.524C399.449 34.236 399.629 33.852 399.749 33.372C399.869 32.892 399.953 32.352 400.001 31.752C400.049 31.14 400.091 30.528 400.127 29.916L400.289 26.55H407.219V36H405.941V27.288L406.265 27.666H401.117L401.423 27.27L401.279 30.006C401.243 30.822 401.177 31.602 401.081 32.346C400.997 33.09 400.859 33.744 400.667 34.308C400.487 34.872 400.235 35.316 399.911 35.64C399.587 35.952 399.173 36.108 398.669 36.108C398.525 36.108 398.375 36.096 398.219 36.072C398.075 36.048 397.919 36.018 397.751 35.982ZM414.92 29.88C416.108 29.892 417.008 30.156 417.62 30.672C418.244 31.188 418.556 31.932 418.556 32.904C418.556 33.912 418.22 34.686 417.548 35.226C416.888 35.766 415.928 36.03 414.668 36.018L410.852 36V26.55H412.13V29.844L414.92 29.88ZM414.596 35.046C415.472 35.058 416.132 34.884 416.576 34.524C417.032 34.152 417.26 33.612 417.26 32.904C417.26 32.196 417.038 31.68 416.594 31.356C416.15 31.02 415.484 30.846 414.596 30.834L412.13 30.798V35.01L414.596 35.046ZM420.995 36V26.55H422.273V30.726H428.231V26.55H429.509V36H428.231V31.824H422.273V36H420.995ZM442.357 36V26.55H443.635V36H442.357ZM437.119 29.88C438.307 29.892 439.213 30.156 439.837 30.672C440.461 31.188 440.773 31.932 440.773 32.904C440.773 33.912 440.437 34.686 439.765 35.226C439.093 35.766 438.133 36.03 436.885 36.018L433.141 36V26.55H434.419V29.844L437.119 29.88ZM436.795 35.046C437.683 35.058 438.349 34.884 438.793 34.524C439.249 34.152 439.477 33.612 439.477 32.904C439.477 32.196 439.255 31.68 438.811 31.356C438.367 31.02 437.695 30.846 436.795 30.834L434.419 30.798V35.01L436.795 35.046ZM447.274 36V26.55H448.552V34.056L454.87 26.55H456.004V36H454.726V28.476L448.426 36H447.274ZM451.558 25.182C450.766 25.182 450.124 24.984 449.632 24.588C449.152 24.18 448.9 23.598 448.876 22.842H449.794C449.806 23.322 449.974 23.7 450.298 23.976C450.622 24.252 451.042 24.39 451.558 24.39C452.074 24.39 452.494 24.252 452.818 23.976C453.154 23.7 453.328 23.322 453.34 22.842H454.258C454.246 23.598 453.994 24.18 453.502 24.588C453.01 24.984 452.362 25.182 451.558 25.182ZM464.378 36V26.55H465.656V30.726H471.614V26.55H472.892V36H471.614V31.824H465.656V36H464.378ZM480.412 36.09C479.5 36.09 478.678 35.886 477.946 35.478C477.226 35.058 476.656 34.488 476.236 33.768C475.816 33.036 475.606 32.202 475.606 31.266C475.606 30.318 475.816 29.484 476.236 28.764C476.656 28.044 477.226 27.48 477.946 27.072C478.666 26.664 479.488 26.46 480.412 26.46C481.348 26.46 482.176 26.664 482.896 27.072C483.628 27.48 484.198 28.044 484.606 28.764C485.026 29.484 485.236 30.318 485.236 31.266C485.236 32.202 485.026 33.036 484.606 33.768C484.198 34.488 483.628 35.058 482.896 35.478C482.164 35.886 481.336 36.09 480.412 36.09ZM480.412 34.956C481.096 34.956 481.702 34.806 482.23 34.506C482.758 34.194 483.172 33.762 483.472 33.21C483.784 32.646 483.94 31.998 483.94 31.266C483.94 30.522 483.784 29.874 483.472 29.322C483.172 28.77 482.758 28.344 482.23 28.044C481.702 27.732 481.102 27.576 480.43 27.576C479.758 27.576 479.158 27.732 478.63 28.044C478.102 28.344 477.682 28.77 477.37 29.322C477.058 29.874 476.902 30.522 476.902 31.266C476.902 31.998 477.058 32.646 477.37 33.21C477.682 33.762 478.102 34.194 478.63 34.506C479.158 34.806 479.752 34.956 480.412 34.956ZM487.967 36V26.55H489.263L493.547 33.804H493.007L497.363 26.55H498.551V36H497.381V28.008L497.615 28.116L493.547 34.848H492.971L488.867 28.044L489.137 27.99V36H487.967ZM506.238 36.09C505.254 36.09 504.39 35.886 503.646 35.478C502.902 35.058 502.32 34.488 501.9 33.768C501.48 33.036 501.27 32.202 501.27 31.266C501.27 30.33 501.468 29.502 501.864 28.782C502.272 28.062 502.824 27.498 503.52 27.09C504.228 26.67 505.02 26.46 505.896 26.46C506.784 26.46 507.57 26.664 508.254 27.072C508.95 27.468 509.496 28.032 509.892 28.764C510.288 29.484 510.486 30.318 510.486 31.266C510.486 31.326 510.48 31.392 510.468 31.464C510.468 31.524 510.468 31.59 510.468 31.662H502.242V30.708H509.784L509.28 31.086C509.28 30.402 509.13 29.796 508.83 29.268C508.542 28.728 508.146 28.308 507.642 28.008C507.138 27.708 506.556 27.558 505.896 27.558C505.248 27.558 504.666 27.708 504.15 28.008C503.634 28.308 503.232 28.728 502.944 29.268C502.656 29.808 502.512 30.426 502.512 31.122V31.32C502.512 32.04 502.668 32.676 502.98 33.228C503.304 33.768 503.748 34.194 504.312 34.506C504.888 34.806 505.542 34.956 506.274 34.956C506.85 34.956 507.384 34.854 507.876 34.65C508.38 34.446 508.812 34.134 509.172 33.714L509.892 34.542C509.472 35.046 508.944 35.43 508.308 35.694C507.684 35.958 506.994 36.09 506.238 36.09ZM518.193 36.09C517.377 36.09 516.639 35.904 515.979 35.532C515.319 35.148 514.791 34.602 514.395 33.894C514.011 33.174 513.819 32.298 513.819 31.266C513.819 30.234 514.011 29.364 514.395 28.656C514.779 27.936 515.301 27.39 515.961 27.018C516.621 26.646 517.365 26.46 518.193 26.46C519.093 26.46 519.897 26.664 520.605 27.072C521.325 27.468 521.889 28.032 522.297 28.764C522.705 29.484 522.909 30.318 522.909 31.266C522.909 32.226 522.705 33.066 522.297 33.786C521.889 34.506 521.325 35.07 520.605 35.478C519.897 35.886 519.093 36.09 518.193 36.09ZM513.315 39.492V26.55H514.539V29.394L514.413 31.284L514.593 33.192V39.492H513.315ZM518.103 34.956C518.775 34.956 519.375 34.806 519.903 34.506C520.431 34.194 520.851 33.762 521.163 33.21C521.475 32.646 521.631 31.998 521.631 31.266C521.631 30.534 521.475 29.892 521.163 29.34C520.851 28.788 520.431 28.356 519.903 28.044C519.375 27.732 518.775 27.576 518.103 27.576C517.431 27.576 516.825 27.732 516.285 28.044C515.757 28.356 515.337 28.788 515.025 29.34C514.725 29.892 514.575 30.534 514.575 31.266C514.575 31.998 514.725 32.646 515.025 33.21C515.337 33.762 515.757 34.194 516.285 34.506C516.825 34.806 517.431 34.956 518.103 34.956Z" fill="white"/>
<path d="M190.292 14L186.17 1.4H189.194L192.776 12.56H191.264L195.008 1.4H197.708L201.308 12.56H199.85L203.522 1.4H206.312L202.19 14H199.058L195.872 4.208H196.7L193.424 14H190.292ZM216.58 1.4H219.496V14H216.58V1.4ZM210.856 14H207.94V1.4H210.856V14ZM216.796 8.834H210.64V6.368H216.796V8.834ZM220.821 14L226.437 1.4H229.317L234.951 14H231.891L227.283 2.876H228.435L223.809 14H220.821ZM223.629 11.3L224.403 9.086H230.883L231.675 11.3H223.629ZM238.236 14V3.776H234.204V1.4H245.184V3.776H241.152V14H238.236ZM250.805 14.216C249.797 14.216 248.831 14.084 247.907 13.82C246.983 13.544 246.239 13.19 245.675 12.758L246.665 10.562C247.205 10.946 247.841 11.264 248.573 11.516C249.317 11.756 250.067 11.876 250.823 11.876C251.399 11.876 251.861 11.822 252.209 11.714C252.569 11.594 252.833 11.432 253.001 11.228C253.169 11.024 253.253 10.79 253.253 10.526C253.253 10.19 253.121 9.926 252.857 9.734C252.593 9.53 252.245 9.368 251.813 9.248C251.381 9.116 250.901 8.996 250.373 8.888C249.857 8.768 249.335 8.624 248.807 8.456C248.291 8.288 247.817 8.072 247.385 7.808C246.953 7.544 246.599 7.196 246.323 6.764C246.059 6.332 245.927 5.78 245.927 5.108C245.927 4.388 246.119 3.734 246.503 3.146C246.899 2.546 247.487 2.072 248.267 1.724C249.059 1.364 250.049 1.184 251.237 1.184C252.029 1.184 252.809 1.28 253.577 1.472C254.345 1.652 255.023 1.928 255.611 2.3L254.711 4.514C254.123 4.178 253.535 3.932 252.947 3.776C252.359 3.608 251.783 3.524 251.219 3.524C250.655 3.524 250.193 3.59 249.833 3.722C249.473 3.854 249.215 4.028 249.059 4.244C248.903 4.448 248.825 4.688 248.825 4.964C248.825 5.288 248.957 5.552 249.221 5.756C249.485 5.948 249.833 6.104 250.265 6.224C250.697 6.344 251.171 6.464 251.687 6.584C252.215 6.704 252.737 6.842 253.253 6.998C253.781 7.154 254.261 7.364 254.693 7.628C255.125 7.892 255.473 8.24 255.737 8.672C256.013 9.104 256.151 9.65 256.151 10.31C256.151 11.018 255.953 11.666 255.557 12.254C255.161 12.842 254.567 13.316 253.775 13.676C252.995 14.036 252.005 14.216 250.805 14.216ZM256.487 14L262.103 1.4H264.983L270.617 14H267.557L262.949 2.876H264.101L259.475 14H256.487ZM259.295 11.3L260.069 9.086H266.549L267.341 11.3H259.295ZM271.925 14V1.4H277.379C278.507 1.4 279.479 1.586 280.295 1.958C281.111 2.318 281.741 2.84 282.185 3.524C282.629 4.208 282.851 5.024 282.851 5.972C282.851 6.908 282.629 7.718 282.185 8.402C281.741 9.086 281.111 9.614 280.295 9.986C279.479 10.346 278.507 10.526 277.379 10.526H273.545L274.841 9.212V14H271.925ZM274.841 9.536L273.545 8.15H277.217C278.117 8.15 278.789 7.958 279.233 7.574C279.677 7.19 279.899 6.656 279.899 5.972C279.899 5.276 279.677 4.736 279.233 4.352C278.789 3.968 278.117 3.776 277.217 3.776H273.545L274.841 2.39V9.536ZM284.932 14V1.4H290.386C291.514 1.4 292.486 1.586 293.302 1.958C294.118 2.318 294.748 2.84 295.192 3.524C295.636 4.208 295.858 5.024 295.858 5.972C295.858 6.908 295.636 7.718 295.192 8.402C294.748 9.086 294.118 9.614 293.302 9.986C292.486 10.346 291.514 10.526 290.386 10.526H286.552L287.848 9.212V14H284.932ZM287.848 9.536L286.552 8.15H290.224C291.124 8.15 291.796 7.958 292.24 7.574C292.684 7.19 292.906 6.656 292.906 5.972C292.906 5.276 292.684 4.736 292.24 4.352C291.796 3.968 291.124 3.776 290.224 3.776H286.552L287.848 2.39V9.536Z" fill="#FFA665"/>
</svg>
