<svg width="155" height="52" viewBox="0 0 155 52" fill="none" xmlns="http://www.w3.org/2000/svg">
<path d="M9.984 22.336C8.656 22.336 7.424 22.128 6.288 21.712C5.168 21.28 4.192 20.672 3.36 19.888C2.544 19.104 1.904 18.184 1.44 17.128C0.976 16.056 0.744 14.88 0.744 13.6C0.744 12.32 0.976 11.152 1.44 10.096C1.904 9.024 2.544 8.096 3.36 7.312C4.192 6.528 5.168 5.928 6.288 5.512C7.424 5.08 8.656 4.864 9.984 4.864C11.536 4.864 12.92 5.136 14.136 5.68C15.368 6.224 16.392 7.008 17.208 8.032L14.184 10.768C13.64 10.128 13.04 9.64 12.384 9.304C11.744 8.968 11.024 8.8 10.224 8.8C9.536 8.8 8.904 8.912 8.328 9.136C7.752 9.36 7.256 9.688 6.84 10.12C6.44 10.536 6.12 11.04 5.88 11.632C5.656 12.224 5.544 12.88 5.544 13.6C5.544 14.32 5.656 14.976 5.88 15.568C6.12 16.16 6.44 16.672 6.84 17.104C7.256 17.52 7.752 17.84 8.328 18.064C8.904 18.288 9.536 18.4 10.224 18.4C11.024 18.4 11.744 18.232 12.384 17.896C13.04 17.56 13.64 17.072 14.184 16.432L17.208 19.168C16.392 20.176 15.368 20.96 14.136 21.52C12.92 22.064 11.536 22.336 9.984 22.336ZM22.9341 22V7.912L23.9901 8.968H17.7741V5.2H32.7501V8.968H26.5581L27.6141 7.912V22H22.9341ZM34.9406 22V5.2H42.6206C44.1566 5.2 45.4766 5.448 46.5806 5.944C47.7006 6.44 48.5646 7.16 49.1726 8.104C49.7806 9.032 50.0846 10.136 50.0846 11.416C50.0846 12.68 49.7806 13.776 49.1726 14.704C48.5646 15.632 47.7006 16.352 46.5806 16.864C45.4766 17.36 44.1566 17.608 42.6206 17.608H37.5806L39.6926 15.544V22H34.9406ZM39.6926 16.048L37.5806 13.864H42.3326C43.3246 13.864 44.0606 13.648 44.5406 13.216C45.0366 12.784 45.2846 12.184 45.2846 11.416C45.2846 10.632 45.0366 10.024 44.5406 9.592C44.0606 9.16 43.3246 8.944 42.3326 8.944H37.5806L39.6926 6.76V16.048ZM60.7279 22.336C59.3839 22.336 58.1439 22.12 57.0079 21.688C55.8719 21.256 54.8799 20.648 54.0319 19.864C53.1999 19.064 52.5519 18.136 52.0879 17.08C51.6239 16.024 51.3919 14.864 51.3919 13.6C51.3919 12.336 51.6239 11.176 52.0879 10.12C52.5519 9.064 53.1999 8.144 54.0319 7.36C54.8799 6.56 55.8719 5.944 57.0079 5.512C58.1439 5.08 59.3839 4.864 60.7279 4.864C62.0879 4.864 63.3279 5.08 64.4479 5.512C65.5839 5.944 66.5679 6.56 67.3999 7.36C68.2319 8.144 68.8799 9.064 69.3439 10.12C69.8239 11.176 70.0639 12.336 70.0639 13.6C70.0639 14.864 69.8239 16.032 69.3439 17.104C68.8799 18.16 68.2319 19.08 67.3999 19.864C66.5679 20.648 65.5839 21.256 64.4479 21.688C63.3279 22.12 62.0879 22.336 60.7279 22.336ZM60.7279 18.4C61.3679 18.4 61.9599 18.288 62.5039 18.064C63.0639 17.84 63.5439 17.52 63.9439 17.104C64.3599 16.672 64.6799 16.16 64.9039 15.568C65.1439 14.976 65.2639 14.32 65.2639 13.6C65.2639 12.864 65.1439 12.208 64.9039 11.632C64.6799 11.04 64.3599 10.536 63.9439 10.12C63.5439 9.688 63.0639 9.36 62.5039 9.136C61.9599 8.912 61.3679 8.8 60.7279 8.8C60.0879 8.8 59.4879 8.912 58.9279 9.136C58.3839 9.36 57.9039 9.688 57.4879 10.12C57.0879 10.536 56.7679 11.04 56.5279 11.632C56.3039 12.208 56.1919 12.864 56.1919 13.6C56.1919 14.32 56.3039 14.976 56.5279 15.568C56.7679 16.16 57.0879 16.672 57.4879 17.104C57.9039 17.52 58.3839 17.84 58.9279 18.064C59.4879 18.288 60.0879 18.4 60.7279 18.4ZM72.6047 22V5.2H77.2847V15.064L84.2207 5.2H88.6847V22H84.0047V12.16L77.0927 22H72.6047ZM80.6207 4.192C78.8767 4.192 77.6207 3.856 76.8527 3.184C76.0847 2.496 75.7007 1.528 75.7007 0.279999H78.8927C78.9087 0.839999 79.0527 1.256 79.3247 1.528C79.5967 1.8 80.0287 1.936 80.6207 1.936C81.2287 1.936 81.6687 1.8 81.9407 1.528C82.2287 1.256 82.3807 0.839999 82.3967 0.279999H85.5887C85.5887 1.528 85.1967 2.496 84.4127 3.184C83.6287 3.856 82.3647 4.192 80.6207 4.192Z" fill="white"/>
<path d="M12.408 51L7.68 43.008L11.496 40.752L17.76 51H12.408ZM1.704 51V34.2H6.432V51H1.704ZM5.064 44.568V40.728H11.16V44.568H5.064ZM11.952 43.104L7.56 42.624L12.72 34.2H17.712L11.952 43.104ZM27.4466 51.336C26.1026 51.336 24.8626 51.12 23.7266 50.688C22.5906 50.256 21.5986 49.648 20.7506 48.864C19.9186 48.064 19.2706 47.136 18.8066 46.08C18.3426 45.024 18.1106 43.864 18.1106 42.6C18.1106 41.336 18.3426 40.176 18.8066 39.12C19.2706 38.064 19.9186 37.144 20.7506 36.36C21.5986 35.56 22.5906 34.944 23.7266 34.512C24.8626 34.08 26.1026 33.864 27.4466 33.864C28.8066 33.864 30.0466 34.08 31.1666 34.512C32.3026 34.944 33.2866 35.56 34.1186 36.36C34.9506 37.144 35.5986 38.064 36.0626 39.12C36.5426 40.176 36.7826 41.336 36.7826 42.6C36.7826 43.864 36.5426 45.032 36.0626 46.104C35.5986 47.16 34.9506 48.08 34.1186 48.864C33.2866 49.648 32.3026 50.256 31.1666 50.688C30.0466 51.12 28.8066 51.336 27.4466 51.336ZM27.4466 47.4C28.0866 47.4 28.6786 47.288 29.2226 47.064C29.7826 46.84 30.2626 46.52 30.6626 46.104C31.0786 45.672 31.3986 45.16 31.6226 44.568C31.8626 43.976 31.9826 43.32 31.9826 42.6C31.9826 41.864 31.8626 41.208 31.6226 40.632C31.3986 40.04 31.0786 39.536 30.6626 39.12C30.2626 38.688 29.7826 38.36 29.2226 38.136C28.6786 37.912 28.0866 37.8 27.4466 37.8C26.8066 37.8 26.2066 37.912 25.6466 38.136C25.1026 38.36 24.6226 38.688 24.2066 39.12C23.8066 39.536 23.4866 40.04 23.2466 40.632C23.0226 41.208 22.9106 41.864 22.9106 42.6C22.9106 43.32 23.0226 43.976 23.2466 44.568C23.4866 45.16 23.8066 45.672 24.2066 46.104C24.6226 46.52 25.1026 46.84 25.6466 47.064C26.2066 47.288 26.8066 47.4 27.4466 47.4ZM39.3234 51V34.2H43.2354L50.1714 45.624H48.1074L54.8994 34.2H58.8114L58.8594 51H54.4674L54.4434 40.848H55.1874L50.1234 49.344H48.0114L42.8034 40.848H43.6914V51H39.3234ZM62.4328 51V34.2H78.2008V51H73.4968V36.912L74.5528 37.968H66.0808L67.1128 36.912V51H62.4328ZM80.1122 51L87.5282 34.2H92.2082L99.6482 51H94.7042L88.8962 36.528H90.7682L84.9602 51H80.1122ZM84.1682 47.736L85.3922 44.232H93.6002L94.8242 47.736H84.1682ZM112.805 34.2H117.557V51H112.805V34.2ZM106.325 51H101.573V34.2H106.325V51ZM113.141 44.448H105.989V40.512H113.141V44.448ZM121.167 51V34.2H125.847V44.064L132.783 34.2H137.247V51H132.567V41.16L125.655 51H121.167ZM150.239 51V45.792L151.367 46.776H147.119C145.615 46.776 144.319 46.528 143.231 46.032C142.143 45.536 141.303 44.824 140.711 43.896C140.135 42.968 139.847 41.864 139.847 40.584C139.847 39.256 140.151 38.12 140.759 37.176C141.383 36.216 142.255 35.48 143.375 34.968C144.511 34.456 145.839 34.2 147.359 34.2H154.919V51H150.239ZM139.895 51L144.095 44.928H148.871L144.887 51H139.895ZM150.239 44.28V36.768L151.367 37.944H147.455C146.527 37.944 145.823 38.16 145.343 38.592C144.879 39.008 144.647 39.648 144.647 40.512C144.647 41.36 144.879 42.008 145.343 42.456C145.823 42.888 146.511 43.104 147.407 43.104H151.367L150.239 44.28Z" fill="#89B0F0"/>
</svg>
